<svg id="Layer_1" data-name="Layer 1" xmlns="http://www.w3.org/2000/svg" viewBox="0 0 96 96"><defs><style>.cls-1,.cls-2,.cls-3,.cls-4,.cls-7{fill:#fff;}.cls-1,.cls-2,.cls-3,.cls-4,.cls-5,.cls-6{stroke:#000;}.cls-1,.cls-2,.cls-3,.cls-4,.cls-5,.cls-6,.cls-8{stroke-miterlimit:10;}.cls-2,.cls-3,.cls-5,.cls-6,.cls-8{stroke-width:0.75px;}.cls-3,.cls-4,.cls-5,.cls-8{stroke-linecap:round;}.cls-4{stroke-width:0.25px;}.cls-5,.cls-6,.cls-8{fill:none;}.cls-8{stroke:#231f20;}</style></defs><title>reverse</title><rect class="cls-1" x="8.15" y="8.15" width="79.7" height="79.7" rx="12" ry="12"/><path class="cls-2" d="M64.44,23.3h-22a1.68,1.68,0,0,0-1.67-1.67H31.27A1.68,1.68,0,0,0,29.6,23.3a1.65,1.65,0,0,0,0,.29A6.71,6.71,0,0,0,24.87,30V49a6.71,6.71,0,0,0,6.69,6.69H64.44A6.71,6.71,0,0,0,71.13,49V30A6.71,6.71,0,0,0,64.44,23.3Z"/><ellipse class="cls-3" cx="48" cy="39.47" rx="9.01" ry="9"/><rect class="cls-4" x="60.14" y="28.34" width="3.7" height="1.16" rx="0.58" ry="0.58"/><line class="cls-5" x1="45.08" y1="66.1" x2="45.08" y2="62.52"/><line class="cls-5" x1="45.08" y1="76.18" x2="45.08" y2="72.6"/><path class="cls-5" d="M12.46,51.24C12.46,63,27.05,72.6,45.08,72.6"/><path class="cls-5" d="M12.46,51.24c0,8.21,14.59,14.85,32.63,14.85"/><polyline class="cls-6" points="45.09 62.52 52.11 68.88 51.77 68.58 45.09 76.18"/><path class="cls-7" d="M55.53,67.56A4.8,4.8,0,0,0,52,71.8a1.13,1.13,0,0,0,1.13,1.13,1.15,1.15,0,0,0,1.13-1.12,2.49,2.49,0,0,1,1.88-2.07,1.13,1.13,0,0,0-.6-2.17Z"/><path class="cls-7" d="M53.76,67.94a2.13,2.13,0,0,1-.82,1.1l1.65,1.27.49-2.87a1.16,1.16,0,0,0-.79-1.38,1.13,1.13,0,0,0-1.38.79l-.49,2.87c-.15.87.76,1.88,1.65,1.27a4.64,4.64,0,0,0,1.85-2.44c.46-1.38-1.71-2-2.17-.6Z"/><line class="cls-8" x1="54.84" y1="64.41" x2="54.84" y2="72.63"/><path class="cls-8" d="M54.84,64.41c16.49,0,29.84-5.37,29.84-12"/><path class="cls-8" d="M84.68,52.4c0,11.18-13.34,20.23-29.84,20.23"/></svg>