<svg id="Layer_1" data-name="Layer 1" xmlns="http://www.w3.org/2000/svg" viewBox="0 0 96 96"><defs><style>.cls-1{fill:#fff;}.cls-1,.cls-3{stroke:#000;}.cls-1,.cls-2,.cls-3{stroke-linecap:round;stroke-miterlimit:10;}.cls-2,.cls-3{fill:none;}.cls-2{stroke:#fff;}.cls-3{stroke-width:0.75px;}</style></defs><title>brightness_v2</title><circle class="cls-1" cx="48.04" cy="48.04" r="47.44"/><ellipse class="cls-2" cx="48.15" cy="48.28" rx="19.74" ry="20.08"/><line class="cls-2" x1="41.77" y1="25.59" x2="55.65" y2="25.36"/><line class="cls-2" x1="48.29" y1="15.58" x2="55.65" y2="25.36"/><line class="cls-2" x1="48.29" y1="15.58" x2="41.77" y2="25.59"/><line class="cls-2" x1="55.65" y1="70.85" x2="41.77" y2="71.08"/><line class="cls-2" x1="49.13" y1="80.86" x2="41.77" y2="71.08"/><line class="cls-2" x1="49.13" y1="80.86" x2="55.65" y2="70.85"/><line class="cls-2" x1="70.81" y1="41.22" x2="71.05" y2="55.34"/><line class="cls-2" x1="80.66" y1="47.84" x2="71.05" y2="55.34"/><line class="cls-2" x1="80.66" y1="47.84" x2="70.81" y2="41.22"/><line class="cls-2" x1="25.48" y1="55.46" x2="25.13" y2="41.35"/><line class="cls-2" x1="15.59" y1="48.92" x2="25.13" y2="41.35"/><line class="cls-2" x1="15.59" y1="48.92" x2="25.48" y2="55.46"/><line class="cls-2" x1="60.12" y1="27.57" x2="69.92" y2="37.57"/><line class="cls-2" x1="71.73" y1="25.4" x2="69.92" y2="37.57"/><line class="cls-2" x1="71.73" y1="25.4" x2="60.12" y2="27.57"/><line class="cls-2" x1="37.32" y1="69.69" x2="27.51" y2="59.7"/><line class="cls-2" x1="25.72" y1="71.88" x2="27.51" y2="59.7"/><line class="cls-2" x1="25.72" y1="71.88" x2="37.32" y2="69.69"/><line class="cls-2" x1="69.48" y1="58.43" x2="59.92" y2="68.66"/><line class="cls-2" x1="71.93" y1="70.17" x2="59.92" y2="68.66"/><line class="cls-2" x1="71.93" y1="70.17" x2="69.48" y2="58.43"/><line class="cls-2" x1="27.64" y1="36.42" x2="37.3" y2="26.28"/><line class="cls-2" x1="25.3" y1="24.65" x2="37.3" y2="26.28"/><line class="cls-2" x1="25.3" y1="24.65" x2="27.64" y2="36.42"/><ellipse class="cls-3" cx="48.03" cy="48.06" rx="21.74" ry="22.12"/><line class="cls-3" x1="41.01" y1="23.07" x2="56.29" y2="22.82"/><line class="cls-3" x1="48.19" y1="12.05" x2="56.29" y2="22.82"/><line class="cls-3" x1="48.19" y1="12.05" x2="41.01" y2="23.07"/><line class="cls-3" x1="56.29" y1="72.93" x2="41.01" y2="73.18"/><line class="cls-3" x1="49.11" y1="83.95" x2="41.01" y2="73.18"/><line class="cls-3" x1="49.11" y1="83.95" x2="56.29" y2="72.93"/><line class="cls-3" x1="73" y1="40.29" x2="73.26" y2="55.84"/><line class="cls-3" x1="83.84" y1="47.58" x2="73.26" y2="55.84"/><line class="cls-3" x1="83.84" y1="47.58" x2="73" y2="40.29"/><line class="cls-3" x1="23.07" y1="55.97" x2="22.67" y2="40.43"/><line class="cls-3" x1="12.16" y1="48.77" x2="22.67" y2="40.43"/><line class="cls-3" x1="12.16" y1="48.77" x2="23.07" y2="55.97"/><line class="cls-3" x1="61.22" y1="25.25" x2="72.01" y2="36.27"/><line class="cls-3" x1="74" y1="22.86" x2="72.01" y2="36.27"/><line class="cls-3" x1="74" y1="22.86" x2="61.22" y2="25.25"/><line class="cls-3" x1="36.1" y1="71.65" x2="25.3" y2="60.65"/><line class="cls-3" x1="23.32" y1="74.06" x2="25.3" y2="60.65"/><line class="cls-3" x1="23.32" y1="74.06" x2="36.1" y2="71.65"/><line class="cls-3" x1="71.52" y1="59.24" x2="60.99" y2="70.52"/><line class="cls-3" x1="74.23" y1="72.18" x2="60.99" y2="70.52"/><line class="cls-3" x1="74.23" y1="72.18" x2="71.52" y2="59.24"/><line class="cls-3" x1="25.44" y1="35" x2="36.08" y2="23.83"/><line class="cls-3" x1="22.86" y1="22.03" x2="36.08" y2="23.83"/><line class="cls-3" x1="22.86" y1="22.03" x2="25.44" y2="35"/></svg>