<svg id="Layer_1" data-name="Layer 1" xmlns="http://www.w3.org/2000/svg" xmlns:xlink="http://www.w3.org/1999/xlink" viewBox="0 0 96 96"><defs><style>.cls-1,.cls-5{fill:#e6e7e8;}.cls-1,.cls-9{stroke:#231f20;}.cls-1,.cls-4,.cls-9{stroke-linecap:round;stroke-miterlimit:10;}.cls-2,.cls-9{fill:none;}.cls-3{fill:#231f20;}.cls-4{fill:#999;stroke:#999;}.cls-6{clip-path:url(#clip-path);}.cls-7{fill:url(#_10_dpi_40_);}.cls-8{fill:url(#linear-gradient);}</style><clipPath id="clip-path"><circle id="_Ellipse_" data-name="&lt;Ellipse&gt;" class="cls-1" cx="48.01" cy="48.05" r="35"/></clipPath><pattern id="_10_dpi_40_" data-name="10 dpi 40%" width="28.8" height="28.8" patternUnits="userSpaceOnUse" viewBox="0 0 28.8 28.8"><rect class="cls-2" width="28.8" height="28.8"/><circle class="cls-3" cx="28.8" cy="28.8" r="2.88"/><circle class="cls-3" cx="14.4" cy="28.8" r="2.88"/><circle class="cls-3" cx="28.8" cy="14.4" r="2.88"/><circle class="cls-3" cx="14.4" cy="14.4" r="2.88"/><circle class="cls-3" cx="7.2" cy="21.6" r="2.88"/><circle class="cls-3" cx="21.6" cy="21.6" r="2.88"/><circle class="cls-3" cx="7.2" cy="7.2" r="2.88"/><circle class="cls-3" cx="21.6" cy="7.2" r="2.88"/><circle class="cls-3" cy="28.8" r="2.88"/><circle class="cls-3" cy="14.4" r="2.88"/><circle class="cls-3" cx="28.8" r="2.88"/><circle class="cls-3" cx="14.4" r="2.88"/><circle class="cls-3" r="2.88"/></pattern><linearGradient id="linear-gradient" x1="12.11" y1="45.83" x2="81.82" y2="45.83" gradientUnits="userSpaceOnUse"><stop offset="0.03" stop-color="#fff" stop-opacity="0.9"/><stop offset="0.06" stop-color="#fbfbfb" stop-opacity="0.88"/><stop offset="0.31" stop-color="#d2d1d2" stop-opacity="0.68"/><stop offset="0.43" stop-color="#c2c1c2" stop-opacity="0.6"/><stop offset="0.59" stop-color="#bebdbe" stop-opacity="0.17"/><stop offset="0.66" stop-color="#bcbbbc" stop-opacity="0"/><stop offset="1" stop-opacity="0"/></linearGradient></defs><title>saturation</title><circle class="cls-4" cx="48" cy="47.99" r="47.5" transform="translate(-19.88 48) rotate(-45)"/><circle id="_Ellipse_2" data-name="&lt;Ellipse&gt;" class="cls-5" cx="48.01" cy="48.05" r="35"/><g class="cls-6"><rect class="cls-7" x="13.01" y="8.62" width="69.71" height="74.42"/><rect class="cls-8" x="12.11" y="8.62" width="69.71" height="74.42"/></g><circle id="_Ellipse_3" data-name="&lt;Ellipse&gt;" class="cls-9" cx="48.01" cy="48.05" r="35"/></svg>