<svg id="Layer_1" data-name="Layer 1" xmlns="http://www.w3.org/2000/svg" xmlns:xlink="http://www.w3.org/1999/xlink" viewBox="0 0 96 96"><defs><style>.cls-1,.cls-6{fill:#fff;}.cls-1,.cls-10,.cls-2,.cls-4{stroke:#231f20;}.cls-1,.cls-10,.cls-2,.cls-5{stroke-linecap:round;}.cls-1,.cls-10,.cls-2,.cls-5,.cls-9{stroke-miterlimit:10;}.cls-2,.cls-7{fill:url(#linear-gradient);}.cls-2{clip-path:url(#clip-path);}.cls-10,.cls-3,.cls-4{fill:none;}.cls-4{stroke-width:0.3px;}.cls-5{fill:#999;stroke:#999;}.cls-8{clip-path:url(#clip-path-2);}.cls-9{stroke:#000;fill:url(#Grid_1_pica_Lines);}</style><linearGradient id="linear-gradient" x1="13.01" y1="48.05" x2="83.01" y2="48.05" gradientUnits="userSpaceOnUse"><stop offset="0" stop-color="#1a1a1a"/><stop offset="0.12" stop-color="#252525" stop-opacity="0.97"/><stop offset="0.25" stop-color="#454545" stop-opacity="0.87"/><stop offset="0.4" stop-color="#797979" stop-opacity="0.72"/><stop offset="0.54" stop-color="#c2c2c2" stop-opacity="0.5"/><stop offset="0.54" stop-color="#c3c3c3" stop-opacity="0.5"/><stop offset="0.74" stop-color="#d5d5d5" stop-opacity="0.13"/><stop offset="1" stop-color="#fff" stop-opacity="0"/></linearGradient><clipPath id="clip-path"><circle class="cls-1" cx="47.99" cy="48" r="35"/></clipPath><clipPath id="clip-path-2"><circle class="cls-2" cx="48.01" cy="48.05" r="35"/></clipPath><pattern id="Grid_1_pica_Lines" data-name="Grid 1 pica Lines" width="72" height="72" patternUnits="userSpaceOnUse" viewBox="0 0 72 72"><rect class="cls-3" width="72" height="72"/><line class="cls-4" x1="6" y1="71.75" x2="6" y2="144.25"/><line class="cls-4" x1="30" y1="71.75" x2="30" y2="144.25"/><line class="cls-4" x1="54" y1="71.75" x2="54" y2="144.25"/><line class="cls-4" x1="18" y1="71.75" x2="18" y2="144.25"/><line class="cls-4" x1="42" y1="71.75" x2="42" y2="144.25"/><line class="cls-4" x1="66" y1="71.75" x2="66" y2="144.25"/><line class="cls-4" x1="71.75" y1="66" x2="144.25" y2="66"/><line class="cls-4" x1="71.75" y1="42" x2="144.25" y2="42"/><line class="cls-4" x1="71.75" y1="18" x2="144.25" y2="18"/><line class="cls-4" x1="71.75" y1="54" x2="144.25" y2="54"/><line class="cls-4" x1="71.75" y1="30" x2="144.25" y2="30"/><line class="cls-4" x1="71.75" y1="6" x2="144.25" y2="6"/><line class="cls-4" x1="6" y1="-0.25" x2="6" y2="72.25"/><line class="cls-4" x1="30" y1="-0.25" x2="30" y2="72.25"/><line class="cls-4" x1="54" y1="-0.25" x2="54" y2="72.25"/><line class="cls-4" x1="-0.25" y1="66" x2="72.25" y2="66"/><line class="cls-4" x1="-0.25" y1="42" x2="72.25" y2="42"/><line class="cls-4" x1="-0.25" y1="18" x2="72.25" y2="18"/><line class="cls-4" x1="-0.25" y1="54" x2="72.25" y2="54"/><line class="cls-4" x1="-0.25" y1="30" x2="72.25" y2="30"/><line class="cls-4" x1="-0.25" y1="6" x2="72.25" y2="6"/><line class="cls-4" x1="18" y1="-0.25" x2="18" y2="72.25"/><line class="cls-4" x1="42" y1="-0.25" x2="42" y2="72.25"/><line class="cls-4" x1="66" y1="-0.25" x2="66" y2="72.25"/><line class="cls-4" x1="-72.25" y1="66" x2="0.25" y2="66"/><line class="cls-4" x1="-72.25" y1="42" x2="0.25" y2="42"/><line class="cls-4" x1="-72.25" y1="18" x2="0.25" y2="18"/><line class="cls-4" x1="-72.25" y1="54" x2="0.25" y2="54"/><line class="cls-4" x1="-72.25" y1="30" x2="0.25" y2="30"/><line class="cls-4" x1="-72.25" y1="6" x2="0.25" y2="6"/><line class="cls-4" x1="6" y1="-72.25" x2="6" y2="0.25"/><line class="cls-4" x1="30" y1="-72.25" x2="30" y2="0.25"/><line class="cls-4" x1="54" y1="-72.25" x2="54" y2="0.25"/><line class="cls-4" x1="18" y1="-72.25" x2="18" y2="0.25"/><line class="cls-4" x1="42" y1="-72.25" x2="42" y2="0.25"/><line class="cls-4" x1="66" y1="-72.25" x2="66" y2="0.25"/></pattern></defs><title>sharpen</title><circle class="cls-5" cx="48" cy="47.99" r="47.5" transform="translate(-19.88 48) rotate(-45)"/><circle class="cls-6" cx="47.99" cy="48" r="35"/><circle class="cls-7" cx="48.01" cy="48.05" r="35"/><g class="cls-8"><rect class="cls-9" x="9.73" y="10.22" width="76.55" height="79.67"/></g><circle class="cls-10" cx="47.99" cy="48" r="35"/><circle class="cls-10" cx="48.01" cy="48.05" r="35"/></svg>