<svg xmlns="http://www.w3.org/2000/svg" viewBox="0 0 97 97"><defs><style>.cls-1{fill:#999;stroke:#999;}.cls-1,.cls-2{stroke-linecap:round;stroke-miterlimit:10;}.cls-2{fill:none;stroke:#000;}</style></defs><title>brightness</title><g id="Layer_2" data-name="Layer 2"><g id="Layer_1-2" data-name="Layer 1"><circle class="cls-1" cx="48.5" cy="48.5" r="48"/><circle class="cls-2" cx="48.53" cy="48.55" r="18.7"/><line class="cls-2" x1="42.48" y1="27.42" x2="55.63" y2="27.21"/><line class="cls-2" x1="48.66" y1="18.1" x2="55.63" y2="27.21"/><line class="cls-2" x1="48.66" y1="18.1" x2="42.48" y2="27.42"/><line class="cls-2" x1="55.63" y1="69.58" x2="42.48" y2="69.79"/><line class="cls-2" x1="49.46" y1="78.9" x2="42.48" y2="69.79"/><line class="cls-2" x1="49.46" y1="78.9" x2="55.63" y2="69.58"/><line class="cls-2" x1="70" y1="41.98" x2="70.23" y2="55.13"/><line class="cls-2" x1="79.33" y1="48.15" x2="70.23" y2="55.13"/><line class="cls-2" x1="79.33" y1="48.15" x2="70" y2="41.98"/><line class="cls-2" x1="27.05" y1="55.24" x2="26.71" y2="42.09"/><line class="cls-2" x1="17.67" y1="49.15" x2="26.71" y2="42.09"/><line class="cls-2" x1="17.67" y1="49.15" x2="27.05" y2="55.24"/><line class="cls-2" x1="59.87" y1="29.26" x2="69.16" y2="38.58"/><line class="cls-2" x1="70.87" y1="27.24" x2="69.16" y2="38.58"/><line class="cls-2" x1="70.87" y1="27.24" x2="59.87" y2="29.26"/><line class="cls-2" x1="38.26" y1="68.5" x2="28.97" y2="59.19"/><line class="cls-2" x1="27.27" y1="70.54" x2="28.97" y2="59.19"/><line class="cls-2" x1="27.27" y1="70.54" x2="38.26" y2="68.5"/><line class="cls-2" x1="68.74" y1="58.01" x2="59.68" y2="67.54"/><line class="cls-2" x1="71.06" y1="68.95" x2="59.68" y2="67.54"/><line class="cls-2" x1="71.06" y1="68.95" x2="68.74" y2="58.01"/><line class="cls-2" x1="29.1" y1="37.5" x2="38.25" y2="28.06"/><line class="cls-2" x1="26.88" y1="26.54" x2="38.25" y2="28.06"/><line class="cls-2" x1="26.88" y1="26.54" x2="29.1" y2="37.5"/></g></g></svg>