<svg id="Layer_1" data-name="Layer 1" xmlns="http://www.w3.org/2000/svg" xmlns:xlink="http://www.w3.org/1999/xlink" viewBox="0 0 96 96"><defs><style>.cls-1,.cls-3{fill:#e6e7e8;}.cls-1,.cls-6{stroke:#231f20;}.cls-1,.cls-2,.cls-6{stroke-linecap:round;stroke-miterlimit:10;}.cls-2{fill:#999;stroke:#999;}.cls-4{clip-path:url(#clip-path);}.cls-5{fill:#231f20;}.cls-6{fill:none;}</style><clipPath id="clip-path"><ellipse id="_Ellipse_" data-name="&lt;Ellipse&gt;" class="cls-1" cx="48" cy="48" rx="23.34" ry="22.15"/></clipPath></defs><title>Artboard 1</title><circle class="cls-2" cx="48" cy="48" r="47.5"/><ellipse id="_Ellipse_2" data-name="&lt;Ellipse&gt;" class="cls-3" cx="48" cy="48" rx="23.34" ry="22.15"/><g class="cls-4"><path class="cls-5" d="M54.45,47.85,53.24,62.19c-.15,1.77,2.42,1.91,2.95.4l3-8.82c.73-2.11,1.41-7.21,3.49-8.29l-2.2-.9c2.59,7.57,2.19,16.15,8.24,22.11A1.51,1.51,0,0,0,71.27,66a54.84,54.84,0,0,0,1.8-16.84h-3c.12.93.4,3.59-.18,3.26s-1.46-4.67-1.63-5.27c-.91-3.25-1.65-6.55-2.23-9.87-.92-5.24-.17-12-3.11-16.7a1.52,1.52,0,0,0-2.36-.3A28.34,28.34,0,0,0,53,38.85c-.07,1.93,2.93,1.93,3,0a25.21,25.21,0,0,1,6.69-16.43l-2.36-.3c2.63,4.17,2,11.12,2.8,16C64.06,43.38,65,50.24,67.61,55c3.23,5.85,5.89-2.55,5.46-5.79-.24-1.85-3.09-2-3,0a52.27,52.27,0,0,1-1.7,16l2.51-.66c-5.56-5.47-5.08-13.83-7.47-20.78a1.52,1.52,0,0,0-2.2-.9C59,44,58.63,46.35,57.86,48.56L53.3,61.8l2.95.4,1.21-14.35c.16-1.92-2.84-1.91-3,0Z"/><path class="cls-5" d="M48.15,27.19q.65,20.67-.23,41.33c-.08,1.93,2.92,1.93,3,0q.89-20.66.23-41.33c-.06-1.93-3.06-1.93-3,0Z"/><path class="cls-5" d="M61,40.68a1.5,1.5,0,0,0,0-3,1.5,1.5,0,0,0,0,3Z"/><path class="cls-5" d="M57.51,43.93c-1.58-2.62-7.73-16.43-.82-14.26,5.94,1.86,7.46,10.23,8.56,15.43L68,43.94a86.5,86.5,0,0,0-10.46-17c-.73-.94-2.21-.31-2.51.66a35.38,35.38,0,0,0-1.54,10.94,1.5,1.5,0,0,0,3,0c0-2,1.76-11.29-2.61-10.74s-2.08,10.54-2,12.82h3l-.2-5.41c-.06-1.61-2.63-2.14-2.95-.4a25.34,25.34,0,0,0,.55,11.94c.45,1.57,3.08,1.34,2.95-.4a35.18,35.18,0,0,1,.41-8.91L52.69,37,53,51.84a1.51,1.51,0,0,0,2.95.4l6.23-22.38c.45-1.61-1.94-2.69-2.74-1.16a25,25,0,0,0-2.87,13.66c.13,1.91,3.13,1.93,3,0A79,79,0,0,0,58,30.88c-.36-1.69-2.92-1.26-2.95.4A66.57,66.57,0,0,0,56.1,44.37C56.41,46.1,59,45.58,59,44c.26-5.18.73-10.33,1.41-15.48l-2.95.4,3.92,17.19c.31,1.37,2.68,1.49,2.89,0l2.12-14.74-2.95-.4a127.71,127.71,0,0,1-2.75,17.29,1.5,1.5,0,0,0,2.89.8,121.72,121.72,0,0,1,5.85-16.39l-2.8-.76a49.53,49.53,0,0,1-.9,12.92l2.95.4a21.88,21.88,0,0,1,1.74-7.48l-2.95-.4a75.18,75.18,0,0,1-2.11,12l2.89.8a24.74,24.74,0,0,1,2-6.82l-2.8-.76a57.78,57.78,0,0,1-.73,13.84l2.95.4a101.81,101.81,0,0,1,1.38-11.21c.28-1.54-2-2.82-2.74-1.16L60.62,61.68l2.8.76-2.06-29a1.5,1.5,0,0,0-3,0,186.34,186.34,0,0,0-.92,25.16,1.5,1.5,0,0,0,3,0c.35-5.77.49-11.34-1.67-16.8-.58-1.48-3-1.42-2.95.4a99.26,99.26,0,0,0,1.12,13.52l2.74-1.16c-3.17-4.79-3.26-10.77-7.22-15.12a1.52,1.52,0,0,0-2.56,1.06C49.56,45,51.38,49.29,51,53.91c-.39,5.06-1,10.1-1.46,15.15-.17,1.72,2.5,2,2.95.4a19.58,19.58,0,0,1,5.41-9.14L55.56,58.5l-4,7.59c-.63,1.21.75,3,2.05,2.05a80.7,80.7,0,0,0,8.93-7.5l-2.12-2.12q-4.17,4.81-8,9.89c-1.11,1.47,1.15,2.78,2.36,1.82Q61.19,65.15,67,59.49l-2.36-1.82a28.42,28.42,0,0,1-6.8,9.15l2.36,1.82c3-4.92,7.78-7.13,8.44-13.4s-2.59-12.14-5.71-17.42A1.51,1.51,0,0,0,60.2,39c.7,3.58,2.52,8.31,2.14,11.94-.43,4.14-3.15,8.25-5,11.93L60.13,64a36,36,0,0,1,2.69-8.46l-2.74-1.16-2,7.9,2.51-.66a24,24,0,0,1-6.51-10.42c-.58-1.83-3.48-1-2.89.8A27.34,27.34,0,0,0,58.5,63.75,1.51,1.51,0,0,0,61,63.09l2-7.9c.39-1.58-2-2.76-2.74-1.16a39.26,39.26,0,0,0-3,9.18c-.3,1.56,1.94,2.78,2.74,1.16,1.79-3.63,4.61-7.67,5.24-11.73.72-4.62-1.25-10-2.12-14.45l-2.74,1.16c3,5,6.48,10.87,5.11,17-1,4.64-5.49,7-7.84,10.82-.91,1.5,1.12,2.93,2.36,1.82a30.52,30.52,0,0,0,7.27-9.76,1.51,1.51,0,0,0-2.36-1.82Q59.06,63,52.71,68.1l2.36,1.82q3.6-4.77,7.52-9.28c1.25-1.45-.72-3.48-2.12-2.12a75.29,75.29,0,0,1-8.32,7L54.2,67.6l4-7.59A1.51,1.51,0,0,0,55.8,58.2a22.84,22.84,0,0,0-6.18,10.46l2.95.4C53.05,64,53.63,59,54,53.91c.36-4.61-1.46-8.91-1.12-13.44l-2.56,1.06c3.68,4,3.77,10,6.75,14.51a1.51,1.51,0,0,0,2.74-1.16,93.27,93.27,0,0,1-1-12.72l-2.95.4c2,5.18,1.9,10.53,1.56,16h3a186.32,186.32,0,0,1,.92-25.16h-3l2.06,29c.09,1.33,2.13,2.24,2.8.76L71,45.88l-2.74-1.16a108.83,108.83,0,0,0-1.49,12c-.11,1.67,2.65,2.07,2.95.4a61.43,61.43,0,0,0,.83-14.63c-.09-1.34-2.12-2.22-2.8-.76a27.68,27.68,0,0,0-2.3,7.53c-.28,1.86,2.4,2.71,2.89.8a80.22,80.22,0,0,0,2.21-12.75c.17-1.84-2.36-1.82-2.95-.4a24.77,24.77,0,0,0-1.85,8.28c-.09,1.67,2.61,2.06,2.95.4a52.85,52.85,0,0,0,1-13.72c-.08-1.34-2.15-2.23-2.8-.76a127.12,127.12,0,0,0-6.16,17.1l2.89.8a133.6,133.6,0,0,0,2.86-18.09c.15-1.66-2.71-2.08-2.95-.4L61.42,45.27h2.89L60.4,28.09c-.41-1.8-2.74-1.14-2.95.4C56.77,33.63,56.3,38.78,56,44l2.95-.4a62.45,62.45,0,0,1-1-12.29l-2.95.4a73.8,73.8,0,0,1,1.48,10.69h3A22,22,0,0,1,62,30.22l-2.74-1.16L53.05,51.44l2.95.4L55.69,37c0-1.62-2.65-2.13-2.95-.4a38.75,38.75,0,0,0-.51,9.71l2.95-.4a21.5,21.5,0,0,1-.55-10.34l-2.95-.4.2,5.41c.07,1.92,3.06,1.94,3,0,0-.56,0-9.21-.29-9.27-1.83-.37-1.09,6.13-1.09,7.19h3a33.16,33.16,0,0,1,1.43-10.15l-2.51.66a83.32,83.32,0,0,1,10,16.38c.75,1.61,3.07.42,2.74-1.16-1-4.66-2-9.54-5.09-13.35C60.91,28.26,56.69,25.1,53,25.8c-6.87,1.29-.05,16.31,2,19.64a1.5,1.5,0,0,0,2.59-1.51Z"/><path class="cls-5" d="M60.65,7.35a1.5,1.5,0,0,0,0-3,1.5,1.5,0,0,0,0,3Z"/><path class="cls-5" d="M50.41,28.61c1.74,2.1,5.51,4.25,5.67,7.12.09,1.68-.73,2.3-.09,4.33C57.86,46,62.5,51.68,66.55,56.28c1,1.16,2.87-.08,2.51-1.46A8,8,0,0,0,66,50.07a1.51,1.51,0,0,0-2.36,1.82,58.72,58.72,0,0,1,2.7,7.54c.32,1.13,2.2,1.6,2.74.36a24.58,24.58,0,0,0,2.17-9.43c.07-1.93-2.93-1.93-3,0a20.79,20.79,0,0,1-1.76,7.92l2.74.36a64.67,64.67,0,0,0-3-8.26l-2.36,1.82a4.78,4.78,0,0,1,2.32,3.43l2.51-1.46a61.35,61.35,0,0,1-6.87-9.34,31.26,31.26,0,0,1-2.42-4.53c-2-5.38-.14-1.68-.09-4.32.08-4.47-4.12-6.3-6.75-9.48-1.23-1.49-3.34.64-2.12,2.12Z"/><path class="cls-5" d="M65.73,47.08a9.94,9.94,0,0,0,4.12,3.67,1.52,1.52,0,0,0,2.26-1.3,14.48,14.48,0,0,0-1.36-5.82l-2.59,1.51a24.18,24.18,0,0,1,3.53,6.48l2.74-1.16c-3.83-5.48-9-12-16.06-13.24s-6.56,8.52-6.72,13.2a1.51,1.51,0,0,0,2.95.4q2.06-8.49,3.48-17.09H55.19c.67,2.62,1.27,5.26,1.7,7.93.18,1.15,1.89,8.07.39,9l2.26,1.3Q59.17,46.82,59,41.7H56a81.67,81.67,0,0,0,2.14,12.15c.48,1.88,3.32,1.08,2.89-.8L58.11,40.22c-.41-1.8-2.74-1.14-2.95.4A21.93,21.93,0,0,0,56.57,52c.49,1.23,2.57,1.61,2.89,0a25.53,25.53,0,0,0,.34-8.37c-.2-1.57-2.46-2.16-2.95-.4a26,26,0,0,0-.14,13.69c.4,1.59,3.16,1.31,2.95-.4Q58.33,45.72,56.61,35c-.27-1.66-3.1-1.29-2.95.4a146.59,146.59,0,0,0,2.55,17.23c.4,1.89,3.29,1.09,2.89-.8-.86-4.14-1.47-8.31-2-12.51-.24-1.85-3-2-3,0a126.44,126.44,0,0,0,.77,14.16c.21,1.87,3,2,3,0-.15-8.21-.46-16.32-2.73-24.27-.45-1.56-3.17-1.33-2.95.4,1.88,14.41.71,29.07.24,43.54-.06,2,2.83,1.89,3,0,1-11.35.13-22.66-.88-34-.17-1.91-3.17-1.93-3,0,1,11.32,1.92,22.63.88,34h3c.48-14.47,1.64-29.13-.24-43.54l-2.95.4c2.2,7.68,2.48,15.53,2.63,23.47h3a126.44,126.44,0,0,1-.77-14.16h-3c.58,4.46,1.21,8.9,2.12,13.31l2.89-.8a139.86,139.86,0,0,1-2.44-16.43l-2.95.4q1.66,10.3,3,20.66l2.95-.4A22.6,22.6,0,0,1,59.75,44l-2.95-.4a22.7,22.7,0,0,1-.23,7.57h2.89a20.36,20.36,0,0,1-1.29-10.54l-2.95.4,2.89,12.83,2.89-.8A76.23,76.23,0,0,1,59,41.7c-.19-1.88-3.07-2-3,0q.2,5.12.56,10.23a1.52,1.52,0,0,0,2.26,1.3c2.48-1.46,2-3.95,1.75-6.59a93,93,0,0,0-2.46-13.69c-.34-1.36-2.65-1.5-2.89,0Q53.77,41.56,51.71,50l2.95.4c.08-2.24-.39-7,1-8.7,2.18-2.71,4.7-.89,6.89.47,3.88,2.42,6.74,6.08,9.32,9.78.9,1.3,3.36.55,2.74-1.16a27.09,27.09,0,0,0-3.84-7.2,1.5,1.5,0,0,0-2.59,1.51l.95,4.31,2.26-1.3a5.88,5.88,0,0,1-3-2.59c-1.08-1.59-3.68-.09-2.59,1.51Z"/></g><ellipse id="_Ellipse_3" data-name="&lt;Ellipse&gt;" class="cls-6" cx="48" cy="48" rx="23.34" ry="22.15"/><line class="cls-6" x1="48" y1="25.85" x2="48" y2="70.15"/></svg>