<svg id="Layer_1" data-name="Layer 1" xmlns="http://www.w3.org/2000/svg" xmlns:xlink="http://www.w3.org/1999/xlink" viewBox="0 0 96 96"><defs><style>.cls-1,.cls-3{fill:#f9f9f9;}.cls-1,.cls-6,.cls-8{stroke:#231f20;}.cls-1,.cls-2,.cls-6,.cls-8{stroke-linecap:round;}.cls-1,.cls-2,.cls-6,.cls-7,.cls-8{stroke-miterlimit:10;}.cls-2{fill:#999;stroke:#999;}.cls-4{clip-path:url(#clip-path);}.cls-5{fill:#757575;}.cls-6{fill:none;}.cls-7{stroke:#000;}.cls-8{fill:#b21622;stroke-width:0.25px;}</style><clipPath id="clip-path"><circle id="_Ellipse_" data-name="&lt;Ellipse&gt;" class="cls-1" cx="48.01" cy="48.05" r="35"/></clipPath></defs><title>temperature</title><circle class="cls-2" cx="48" cy="47.99" r="47.5" transform="translate(-19.88 48) rotate(-45)"/><circle id="_Ellipse_2" data-name="&lt;Ellipse&gt;" class="cls-3" cx="48.01" cy="48.05" r="35"/><g class="cls-4"><rect class="cls-5" x="9.78" y="11.5" width="74.77" height="72.64"/></g><circle id="_Ellipse_3" data-name="&lt;Ellipse&gt;" class="cls-6" cx="48.01" cy="48.05" r="35"/><path class="cls-1" d="M53.29,56.65V27.8a5.24,5.24,0,0,0-10.48,0V56.65a9.26,9.26,0,1,0,10.48,0Z"/><line class="cls-7" x1="53.29" y1="28.96" x2="56.62" y2="28.96"/><line class="cls-7" x1="53.29" y1="32.76" x2="56.62" y2="32.76"/><line class="cls-7" x1="53.29" y1="36.03" x2="56.62" y2="36.03"/><path class="cls-8" d="M49.18,61.31V29H46.92V61.28a3.2,3.2,0,1,0,2.26,0Z"/></svg>