<svg id="Layer_1" data-name="Layer 1" xmlns="http://www.w3.org/2000/svg" xmlns:xlink="http://www.w3.org/1999/xlink" viewBox="0 0 96 96"><defs><style>.cls-1{fill:#fff;}.cls-13,.cls-2,.cls-5{fill:none;}.cls-2{clip-path:url(#clip-path);}.cls-13,.cls-3,.cls-4{stroke:#231f20;stroke-linecap:round;}.cls-12,.cls-13,.cls-3,.cls-4{stroke-miterlimit:10;}.cls-3,.cls-9{fill:url(#radial-gradient);}.cls-10,.cls-4{fill:url(#radial-gradient-2);}.cls-4{clip-path:url(#clip-path-2);}.cls-6{fill:#231f20;}.cls-7{clip-path:url(#clip-path-3);}.cls-8{fill:url(#_10_dpi_20_);}.cls-11{clip-path:url(#clip-path-4);}.cls-12{stroke:#000;fill:url(#radial-gradient-5);}</style><clipPath id="clip-path"><circle class="cls-1" cx="47.99" cy="48" r="35"/></clipPath><radialGradient id="radial-gradient" cx="48.05" cy="48.02" r="35" gradientTransform="translate(-17.15 -17.12) scale(1.36 1.36)" gradientUnits="userSpaceOnUse"><stop offset="0.63" stop-color="#fff" stop-opacity="0"/><stop offset="1"/></radialGradient><radialGradient id="radial-gradient-2" cx="48.06" cy="48.07" r="35" xlink:href="#radial-gradient"/><clipPath id="clip-path-2"><ellipse class="cls-3" cx="48.04" cy="48.01" rx="47.49" ry="47.47"/></clipPath><clipPath id="clip-path-3"><circle class="cls-2" cx="48.01" cy="48.05" r="35"/></clipPath><pattern id="_10_dpi_20_" data-name="10 dpi 20%" width="28.8" height="28.8" patternUnits="userSpaceOnUse" viewBox="0 0 28.8 28.8"><rect class="cls-5" width="28.8" height="28.8"/><circle class="cls-6" cx="28.8" cy="28.8" r="1.44"/><circle class="cls-6" cx="14.4" cy="28.8" r="1.44"/><circle class="cls-6" cx="28.8" cy="14.4" r="1.44"/><circle class="cls-6" cx="14.4" cy="14.4" r="1.44"/><circle class="cls-6" cx="7.2" cy="21.6" r="1.44"/><circle class="cls-6" cx="21.6" cy="21.6" r="1.44"/><circle class="cls-6" cx="7.2" cy="7.2" r="1.44"/><circle class="cls-6" cx="21.6" cy="7.2" r="1.44"/><circle class="cls-6" cy="28.8" r="1.44"/><circle class="cls-6" cy="14.4" r="1.44"/><circle class="cls-6" cx="28.8" r="1.44"/><circle class="cls-6" cx="14.4" r="1.44"/><circle class="cls-6" r="1.44"/></pattern><clipPath id="clip-path-4"><ellipse class="cls-4" cx="48.06" cy="48.08" rx="47.49" ry="47.47"/></clipPath><radialGradient id="radial-gradient-5" cx="48.05" cy="50.08" r="39.06" xlink:href="#radial-gradient"/></defs><title>vignette_v2</title><circle class="cls-1" cx="47.99" cy="48" r="35"/><g class="cls-7"><rect class="cls-8" x="9.73" y="10.22" width="76.55" height="79.67"/></g><ellipse class="cls-9" cx="48.04" cy="48.01" rx="47.49" ry="47.47"/><ellipse class="cls-10" cx="48.06" cy="48.08" rx="47.49" ry="47.47"/><g class="cls-11"><rect class="cls-12" x="-3.88" y="-3.22" width="103.87" height="108.06"/></g><ellipse class="cls-13" cx="48.04" cy="48.01" rx="47.49" ry="47.47"/><ellipse class="cls-13" cx="48.06" cy="48.08" rx="47.49" ry="47.47"/></svg>