<svg id="Layer_1" data-name="Layer 1" xmlns="http://www.w3.org/2000/svg" xmlns:xlink="http://www.w3.org/1999/xlink" viewBox="0 0 96 96"><defs><style>.cls-1,.cls-8{fill:#fff;}.cls-1,.cls-11,.cls-2,.cls-3,.cls-4{stroke:#231f20;}.cls-1,.cls-11,.cls-2,.cls-3,.cls-4,.cls-7{stroke-linecap:round;}.cls-1,.cls-10,.cls-11,.cls-15,.cls-2,.cls-3,.cls-4,.cls-7{stroke-miterlimit:10;}.cls-11,.cls-2,.cls-5{fill:none;}.cls-2{clip-path:url(#clip-path);}.cls-12,.cls-3{fill:url(#radial-gradient);}.cls-13,.cls-4{fill:url(#radial-gradient-2);}.cls-4{clip-path:url(#clip-path-2);}.cls-6{fill:#231f20;}.cls-7{fill:#999;stroke:#999;}.cls-9{clip-path:url(#clip-path-3);}.cls-10,.cls-15{stroke:#000;}.cls-10{fill:url(#_10_dpi_20_);}.cls-14{clip-path:url(#clip-path-4);}.cls-15{fill:url(#radial-gradient-5);}</style><clipPath id="clip-path"><circle class="cls-1" cx="47.99" cy="48" r="35"/></clipPath><radialGradient id="radial-gradient" cx="48.05" cy="48.02" r="35" gradientUnits="userSpaceOnUse"><stop offset="0.63" stop-color="#fff" stop-opacity="0"/><stop offset="1"/></radialGradient><radialGradient id="radial-gradient-2" cx="48.06" cy="48.07" r="35" xlink:href="#radial-gradient"/><clipPath id="clip-path-2"><circle class="cls-3" cx="48.05" cy="48.02" r="35"/></clipPath><clipPath id="clip-path-3"><circle class="cls-2" cx="48.01" cy="48.05" r="35"/></clipPath><pattern id="_10_dpi_20_" data-name="10 dpi 20%" width="28.8" height="28.8" patternUnits="userSpaceOnUse" viewBox="0 0 28.8 28.8"><rect class="cls-5" width="28.8" height="28.8"/><circle class="cls-6" cx="28.8" cy="28.8" r="1.44"/><circle class="cls-6" cx="14.4" cy="28.8" r="1.44"/><circle class="cls-6" cx="28.8" cy="14.4" r="1.44"/><circle class="cls-6" cx="14.4" cy="14.4" r="1.44"/><circle class="cls-6" cx="7.2" cy="21.6" r="1.44"/><circle class="cls-6" cx="21.6" cy="21.6" r="1.44"/><circle class="cls-6" cx="7.2" cy="7.2" r="1.44"/><circle class="cls-6" cx="21.6" cy="7.2" r="1.44"/><circle class="cls-6" cy="28.8" r="1.44"/><circle class="cls-6" cy="14.4" r="1.44"/><circle class="cls-6" cx="28.8" r="1.44"/><circle class="cls-6" cx="14.4" r="1.44"/><circle class="cls-6" r="1.44"/></pattern><clipPath id="clip-path-4"><circle class="cls-4" cx="48.06" cy="48.07" r="35"/></clipPath><radialGradient id="radial-gradient-5" cx="48.05" cy="50.08" r="39.06" xlink:href="#radial-gradient"/></defs><title>vignette</title><circle class="cls-7" cx="48" cy="47.99" r="47.5" transform="translate(-19.88 48) rotate(-45)"/><circle class="cls-8" cx="47.99" cy="48" r="35"/><g class="cls-9"><rect class="cls-10" x="9.73" y="10.22" width="76.55" height="79.67"/></g><circle class="cls-11" cx="47.99" cy="48" r="35"/><circle class="cls-11" cx="48.01" cy="48.05" r="35"/><circle class="cls-12" cx="48.05" cy="48.02" r="35"/><circle class="cls-13" cx="48.06" cy="48.07" r="35"/><g class="cls-14"><rect class="cls-15" x="9.78" y="10.24" width="76.55" height="79.67"/></g><circle class="cls-11" cx="48.05" cy="48.02" r="35"/><circle class="cls-11" cx="48.06" cy="48.07" r="35"/></svg>