<svg id="Layer_1" data-name="Layer 1" xmlns="http://www.w3.org/2000/svg" viewBox="0 0 96 96"><defs><style>.cls-1,.cls-2,.cls-4,.cls-5{fill:#fff;stroke:#000;}.cls-1,.cls-4,.cls-5{stroke-linecap:round;}.cls-1,.cls-2,.cls-3,.cls-4,.cls-5{stroke-miterlimit:10;}.cls-2,.cls-4{stroke-width:0.75px;}.cls-3{fill:none;stroke:#e6e6e6;}.cls-5{stroke-width:0.25px;}</style></defs><title>camera_v2</title><circle class="cls-1" cx="48" cy="48" r="46.65" transform="translate(-19.88 48) rotate(-45)"/><path class="cls-2" d="M67.66,30.25H41.34a2,2,0,0,0-2-2H28a2,2,0,0,0-2,2,2,2,0,0,0,0,.35,8,8,0,0,0-5.69,7.65V60.93a8,8,0,0,0,8,8H67.66a8,8,0,0,0,8-8V38.25A8,8,0,0,0,67.66,30.25Z"/><line class="cls-3" x1="7.19" y1="3.02" x2="7.19" y2="2.88"/><ellipse class="cls-4" cx="48" cy="49.59" rx="10.77" ry="10.76"/><rect class="cls-5" x="62.52" y="36.28" width="4.43" height="1.38" rx="0.66" ry="0.66"/></svg>