<svg id="Layer_1" data-name="Layer 1" xmlns="http://www.w3.org/2000/svg" xmlns:xlink="http://www.w3.org/1999/xlink" viewBox="0 0 96 96"><defs><style>.cls-1,.cls-3,.cls-4,.cls-8{stroke:#231f20;}.cls-1,.cls-4,.cls-8{stroke-linecap:round;}.cls-1,.cls-4,.cls-7,.cls-8{stroke-miterlimit:10;}.cls-1,.cls-4{fill:url(#Burlap);}.cls-2,.cls-3,.cls-8{fill:none;}.cls-3{stroke-width:0.5px;}.cls-4{clip-path:url(#clip-path);}.cls-5,.cls-7{fill:url(#Burlap-5);}.cls-6{clip-path:url(#clip-path-2);}.cls-7{stroke:#000;}</style><pattern id="Burlap" data-name="Burlap" width="72" height="72" patternUnits="userSpaceOnUse" viewBox="0 0 72 72"><rect class="cls-2" width="72" height="72"/><line class="cls-3" x1="70.33" y1="72.17" x2="85" y2="72.17"/><line class="cls-3" x1="-1.67" y1="72.17" x2="13" y2="72.17"/><line class="cls-3" x1="68.5" y1="7" x2="83.16" y2="7"/><line class="cls-3" x1="66.83" y1="13.67" x2="81.5" y2="13.67"/><line class="cls-3" x1="70.33" y1="0.17" x2="85" y2="0.17"/><line class="cls-3" x1="71.33" y1="31" x2="86" y2="31"/><line class="cls-3" x1="75.83" y1="2.83" x2="61.16" y2="2.83"/><line class="cls-3" x1="79.33" y1="8.33" x2="64.66" y2="8.33"/><line class="cls-3" x1="61.5" y1="16.51" x2="76.16" y2="16.51"/><line class="cls-3" x1="65.16" y1="65.51" x2="79.83" y2="65.51"/><line class="cls-3" x1="61.5" y1="70.18" x2="76.16" y2="70.18"/><line class="cls-3" x1="66.83" y1="68.18" x2="81.5" y2="68.18"/><line class="cls-3" x1="62.16" y1="63.18" x2="76.83" y2="63.18"/><line class="cls-3" x1="66.83" y1="54.51" x2="81.5" y2="54.51"/><line class="cls-3" x1="63.5" y1="58.84" x2="78.16" y2="58.84"/><line class="cls-3" x1="77" y1="23.33" x2="62.33" y2="23.33"/><line class="cls-3" x1="77.5" y1="26.83" x2="62.83" y2="26.83"/><line class="cls-3" x1="80.5" y1="28.83" x2="65.83" y2="28.83"/><line class="cls-3" x1="66.16" y1="18.67" x2="80.83" y2="18.67"/><line class="cls-3" x1="76.66" y1="32.84" x2="62" y2="32.84"/><line class="cls-3" x1="80.66" y1="34.84" x2="66" y2="34.84"/><line class="cls-3" x1="75" y1="37.17" x2="60.33" y2="37.17"/><line class="cls-3" x1="63.16" y1="51.51" x2="77.83" y2="51.51"/><line class="cls-3" x1="65.16" y1="47.17" x2="79.83" y2="47.17"/><line class="cls-3" x1="65.16" y1="41.84" x2="79.83" y2="41.84"/><line class="cls-3" x1="67.83" y1="44.51" x2="82.5" y2="44.51"/><line class="cls-3" x1="69.83" y1="39.51" x2="84.5" y2="39.51"/><line class="cls-3" x1="9.67" y1="5.67" x2="9.67" y2="20.33"/><line class="cls-3" x1="12.17" y1="8.67" x2="12.17" y2="23.34"/><line class="cls-3" x1="8.5" y1="18.33" x2="8.5" y2="33"/><line class="cls-3" x1="15.83" y1="18.67" x2="15.83" y2="33.34"/><line class="cls-3" x1="6.17" y1="11.67" x2="6.17" y2="26.34"/><line class="cls-3" x1="18.17" y1="8.67" x2="18.17" y2="23.34"/><line class="cls-3" x1="23.67" y1="8.67" x2="23.67" y2="23.34"/><line class="cls-3" x1="25" y1="12.33" x2="25" y2="27"/><line class="cls-3" x1="21.17" y1="3.17" x2="21.17" y2="17.83"/><line class="cls-3" x1="14.67" y1="5.17" x2="14.67" y2="19.83"/><line class="cls-3" x1="1.17" y1="11" x2="15.83" y2="11"/><line class="cls-3" x1="-3.5" y1="7" x2="11.17" y2="7"/><line class="cls-3" x1="-5.17" y1="13.67" x2="9.5" y2="13.67"/><line class="cls-3" x1="13.17" y1="7.33" x2="27.83" y2="7.33"/><line class="cls-3" x1="8" y1="9.17" x2="22.67" y2="9.17"/><line class="cls-3" x1="11.67" y1="17.34" x2="26.33" y2="17.34"/><line class="cls-3" x1="5" y1="14.83" x2="19.67" y2="14.83"/><line class="cls-3" x1="38.5" y1="10" x2="38.5" y2="24.67"/><line class="cls-3" x1="36" y1="13" x2="36" y2="27.67"/><line class="cls-3" x1="42" y1="16" x2="42" y2="30.67"/><line class="cls-3" x1="43.33" y1="23.34" x2="43.33" y2="38"/><line class="cls-3" x1="44.67" y1="16" x2="44.67" y2="30.67"/><line class="cls-3" x1="30" y1="13" x2="30" y2="27.67"/><line class="cls-3" x1="19.83" y1="16.33" x2="19.83" y2="31"/><line class="cls-3" x1="28.33" y1="6.5" x2="28.33" y2="21.17"/><line class="cls-3" x1="26.67" y1="3.17" x2="26.67" y2="17.83"/><line class="cls-3" x1="33.5" y1="8.17" x2="33.5" y2="22.84"/><line class="cls-3" x1="42" y1="14.67" x2="27.33" y2="14.67"/><line class="cls-3" x1="33.67" y1="12.67" x2="19" y2="12.67"/><line class="cls-3" x1="42.5" y1="18.17" x2="27.83" y2="18.17"/><line class="cls-3" x1="36.83" y1="22.01" x2="22.17" y2="22.01"/><line class="cls-3" x1="45.5" y1="20.17" x2="30.83" y2="20.17"/><line class="cls-3" x1="70.84" y1="1.17" x2="70.84" y2="15.83"/><line class="cls-3" x1="66.17" y1="1.17" x2="66.17" y2="15.83"/><line class="cls-3" x1="58.33" y1="1.17" x2="58.33" y2="15.83"/><line class="cls-3" x1="75.83" y1="2.83" x2="61.17" y2="2.83"/><line class="cls-3" x1="74.33" y1="5.33" x2="59.67" y2="5.33"/><line class="cls-3" x1="70.33" y1="9.84" x2="55.67" y2="9.84"/><line class="cls-3" x1="62.33" y1="8.51" x2="47.67" y2="8.51"/><line class="cls-3" x1="79.33" y1="8.33" x2="64.67" y2="8.33"/><line class="cls-3" x1="41.5" y1="2.5" x2="41.5" y2="17.17"/><line class="cls-3" x1="46" y1="5.5" x2="46" y2="20.17"/><line class="cls-3" x1="40" y1="8.5" x2="40" y2="23.17"/><line class="cls-3" x1="52.67" y1="4.84" x2="52.67" y2="19.5"/><line class="cls-3" x1="62.17" y1="8.83" x2="62.17" y2="23.5"/><line class="cls-3" x1="55" x2="55" y2="14.67"/><line class="cls-3" x1="50.16" y1="1" x2="50.16" y2="15.67"/><line class="cls-3" x1="39.83" y1="2.33" x2="54.5" y2="2.33"/><line class="cls-3" x1="47" y1="4.17" x2="61.67" y2="4.17"/><line class="cls-3" x1="38.67" y1="5.83" x2="53.33" y2="5.83"/><line class="cls-3" x1="39.5" y1="10.67" x2="54.17" y2="10.67"/><line class="cls-3" x1="45.17" y1="15.51" x2="59.83" y2="15.51"/><line class="cls-3" x1="48.83" y1="13.51" x2="63.5" y2="13.51"/><line class="cls-3" x1="36.5" y1="12.67" x2="51.17" y2="12.67"/><line class="cls-3" x1="31.5" y1="1.67" x2="31.5" y2="16.33"/><line class="cls-3" x1="29.83" y1="1" x2="29.83" y2="15.67"/><line class="cls-3" x1="23.83" y1="1.67" x2="23.83" y2="16.33"/><line class="cls-3" x1="2" y1="38.34" x2="2" y2="53"/><line class="cls-3" x1="1.5" y1="21.84" x2="1.5" y2="36.5"/><line class="cls-3" x1="2.67" y1="9.83" x2="2.67" y2="24.5"/><line class="cls-3" x1="0.67" y1="7.33" x2="0.67" y2="22"/><line class="cls-3" x1="-1.67" y1="0.17" x2="13" y2="0.17"/><line class="cls-3" x1="6.67" y1="1.83" x2="21.33" y2="1.83"/><line class="cls-3" x1="1.17" y1="4.33" x2="15.83" y2="4.33"/><line class="cls-3" x1="23.17" y1="5" x2="37.83" y2="5"/><line class="cls-3" x1="18.17" y1="3.67" x2="32.83" y2="3.67"/><line class="cls-3" x1="20.17" y1="1" x2="34.83" y2="1"/><line class="cls-3" x1="25.5" y1="9.33" x2="40.17" y2="9.33"/><line class="cls-3" x1="41.67" y1="24.17" x2="27" y2="24.17"/><line class="cls-3" x1="45.67" y1="26.17" x2="31" y2="26.17"/><line class="cls-3" x1="40" y1="28.51" x2="25.33" y2="28.51"/><line class="cls-3" x1="18.17" y1="34.34" x2="18.17" y2="49"/><line class="cls-3" x1="21.67" y1="40.34" x2="21.67" y2="55"/><line class="cls-3" x1="16" y1="36.67" x2="1.33" y2="36.67"/><line class="cls-3" x1="27" y1="40.67" x2="12.33" y2="40.67"/><line class="cls-3" x1="22.17" y1="42.5" x2="7.5" y2="42.5"/><line class="cls-3" x1="25.17" y1="44.5" x2="10.5" y2="44.5"/><line class="cls-3" x1="38" y1="25.5" x2="38" y2="40.17"/><line class="cls-3" x1="39.33" y1="31.34" x2="39.33" y2="46"/><line class="cls-3" x1="23.17" y1="26.84" x2="23.17" y2="41.5"/><line class="cls-3" x1="26.33" y1="21.5" x2="26.33" y2="36.17"/><line class="cls-3" x1="31.67" y1="29.84" x2="31.67" y2="44.5"/><line class="cls-3" x1="34.67" y1="24.34" x2="34.67" y2="39"/><line class="cls-3" x1="33" y1="24" x2="33" y2="38.67"/><line class="cls-3" x1="28.17" y1="26.34" x2="28.17" y2="41"/><line class="cls-3" x1="24.83" y1="39.84" x2="39.5" y2="39.84"/><line class="cls-3" x1="27.5" y1="41.17" x2="42.17" y2="41.17"/><line class="cls-3" x1="30.17" y1="38.51" x2="44.83" y2="38.51"/><line class="cls-3" x1="30.17" y1="33.17" x2="44.83" y2="33.17"/><line class="cls-3" x1="32.83" y1="35.84" x2="47.5" y2="35.84"/><line class="cls-3" x1="46.16" y1="33.17" x2="60.83" y2="33.17"/><line class="cls-3" x1="34.83" y1="30.84" x2="49.5" y2="30.84"/><line class="cls-3" x1="61.5" y1="16.51" x2="76.16" y2="16.51"/><line class="cls-3" x1="45.5" y1="23.51" x2="60.16" y2="23.51"/><line class="cls-3" x1="43.5" y1="21.17" x2="58.16" y2="21.17"/><line class="cls-3" x1="16.17" y1="37" x2="30.83" y2="37"/><line class="cls-3" x1="16.5" y1="35" x2="31.17" y2="35"/><line class="cls-3" x1="30.33" y1="45.84" x2="15.67" y2="45.84"/><line class="cls-3" x1="22" y1="20.84" x2="22" y2="35.5"/><line class="cls-3" x1="19.83" y1="17.33" x2="19.83" y2="32"/><line class="cls-3" x1="10.83" y1="26" x2="25.5" y2="26"/><line class="cls-3" x1="3.83" y1="24.67" x2="18.5" y2="24.67"/><line class="cls-3" x1="5.5" y1="22.67" x2="20.17" y2="22.67"/><line class="cls-3" x1="4.17" y1="20" x2="18.83" y2="20"/><line class="cls-3" x1="13.5" y1="20" x2="28.17" y2="20"/><line class="cls-3" x1="7" y1="43.67" x2="7" y2="58.34"/><line class="cls-3" x1="9.5" y1="46.67" x2="9.5" y2="61.34"/><line class="cls-3" x1="5.83" y1="56.34" x2="5.83" y2="71"/><line class="cls-3" x1="2.83" y1="54" x2="2.83" y2="68.67"/><line class="cls-3" x1="13.17" y1="56.67" x2="13.17" y2="71.34"/><line class="cls-3" x1="15.5" y1="46.67" x2="15.5" y2="61.34"/><line class="cls-3" x1="25" y1="38.33" x2="25" y2="53"/><line class="cls-3" x1="58.5" y1="60" x2="58.5" y2="74.67"/><line class="cls-3" x1="61.33" y1="47.34" x2="61.33" y2="62"/><line class="cls-3" x1="58" y1="64" x2="43.33" y2="64"/><line class="cls-3" x1="62.5" y1="68.17" x2="47.83" y2="68.17"/><line class="cls-3" x1="59.83" y1="70.17" x2="45.17" y2="70.17"/><line class="cls-3" x1="63.83" y1="66.5" x2="49.17" y2="66.5"/><line class="cls-3" x1="63.5" y1="52.5" x2="63.5" y2="67.17"/><line class="cls-3" x1="60" y1="58.5" x2="60" y2="73.17"/><line class="cls-3" x1="48.66" y1="47.84" x2="48.66" y2="62.5"/><line class="cls-3" x1="47" y1="50.5" x2="47" y2="65.17"/><line class="cls-3" x1="45" y1="56.34" x2="45" y2="71"/><line class="cls-3" x1="67.16" y1="54.33" x2="67.16" y2="69"/><line class="cls-3" x1="68.83" y1="48.33" x2="68.83" y2="63"/><line class="cls-3" x1="71.16" y1="46" x2="71.16" y2="60.67"/><line class="cls-3" x1="65.16" y1="65.51" x2="79.83" y2="65.51"/><line class="cls-3" x1="61.5" y1="70.18" x2="76.16" y2="70.18"/><line class="cls-3" x1="66.83" y1="68.18" x2="81.5" y2="68.18"/><line class="cls-3" x1="62.16" y1="63.18" x2="76.83" y2="63.18"/><line class="cls-3" x1="59.16" y1="56.51" x2="73.83" y2="56.51"/><line class="cls-3" x1="66.83" y1="54.51" x2="81.5" y2="54.51"/><line class="cls-3" x1="63.5" y1="58.84" x2="78.16" y2="58.84"/><line class="cls-3" x1="65.33" y1="64" x2="65.33" y2="78.67"/><line class="cls-3" x1="69.67" y1="61.33" x2="69.67" y2="76"/><line class="cls-3" x1="3.5" y1="48.34" x2="18.17" y2="48.34"/><line class="cls-3" x1="8.17" y1="67.67" x2="22.83" y2="67.67"/><line class="cls-3" x1="5" y1="50.84" x2="19.67" y2="50.84"/><line class="cls-3" x1="9" y1="55.34" x2="23.67" y2="55.34"/><line class="cls-3" x1="20" y1="52.34" x2="34.67" y2="52.34"/><line class="cls-3" x1="0.83" y1="52.5" x2="15.5" y2="52.5"/><line class="cls-3" x1="17.67" y1="52" x2="17.67" y2="66.67"/><line class="cls-3" x1="32.33" y1="49.67" x2="17.67" y2="49.67"/><line class="cls-3" x1="34.17" y1="60.01" x2="19.5" y2="60.01"/><line class="cls-3" x1="35.83" y1="61.68" x2="21.17" y2="61.68"/><line class="cls-3" x1="34.34" y1="56.68" x2="19.67" y2="56.68"/><line class="cls-3" x1="39" y1="54.01" x2="24.33" y2="54.01"/><line class="cls-3" x1="19.33" y1="58.84" x2="19.33" y2="73.5"/><line class="cls-3" x1="12.5" y1="38" x2="12.5" y2="52.67"/><line class="cls-3" x1="10.83" y1="32.67" x2="10.83" y2="47.34"/><line class="cls-3" x1="13.83" y1="29.67" x2="13.83" y2="44.34"/><line class="cls-3" x1="8.5" y1="31.34" x2="8.5" y2="46"/><line class="cls-3" x1="4.83" y1="32.34" x2="4.83" y2="47"/><line class="cls-3" x1="6.83" y1="27.67" x2="6.83" y2="42.34"/><line class="cls-3" x1="8.17" y1="64" x2="22.83" y2="64"/><line class="cls-3" x1="1" y1="62.34" x2="15.67" y2="62.34"/><line class="cls-3" x1="2.83" y1="60.67" x2="17.5" y2="60.67"/><line class="cls-3" x1="29.5" y1="50" x2="29.5" y2="64.67"/><line class="cls-3" x1="26.49" y1="43" x2="26.49" y2="57.67"/><line class="cls-3" x1="25.83" y1="59.67" x2="25.83" y2="74.34"/><line class="cls-3" x1="33.17" y1="60" x2="33.17" y2="74.67"/><line class="cls-3" x1="23.5" y1="53" x2="23.5" y2="67.67"/><line class="cls-3" x1="35.5" y1="50" x2="35.5" y2="64.67"/><line class="cls-3" x1="31" y1="58.84" x2="31" y2="73.5"/><line class="cls-3" x1="28" y1="54.84" x2="28" y2="69.5"/><line class="cls-3" x1="28.17" y1="71" x2="42.83" y2="71"/><line class="cls-3" x1="30.17" y1="68.67" x2="44.83" y2="68.67"/><line class="cls-3" x1="37.17" y1="57.67" x2="37.17" y2="72.34"/><line class="cls-3" x1="32.5" y1="45.34" x2="32.5" y2="60"/><line class="cls-3" x1="55" y1="57.67" x2="55" y2="72.34"/><line class="cls-3" x1="48" y1="65.67" x2="48" y2="80.34"/><line class="cls-3" x1="34.17" y1="40.67" x2="34.17" y2="55.34"/><line class="cls-3" x1="28.17" y1="67.34" x2="42.83" y2="67.34"/><line class="cls-3" x1="21.17" y1="66" x2="35.83" y2="66"/><line class="cls-3" x1="13.17" y1="69.34" x2="27.83" y2="69.34"/><line class="cls-3" x1="7.83" y1="70.67" x2="22.5" y2="70.67"/><line class="cls-3" x1="22.83" y1="64" x2="37.5" y2="64"/><line class="cls-3" x1="1.5" y1="58" x2="16.17" y2="58"/><line class="cls-3" x1="10.83" y1="58" x2="25.5" y2="58"/><line class="cls-3" x1="16.5" y1="30.84" x2="31.17" y2="30.84"/><line class="cls-3" x1="7.83" y1="28" x2="22.5" y2="28"/><line class="cls-3" x1="6.67" y1="33.34" x2="21.33" y2="33.34"/><line class="cls-3" x1="-0.67" y1="31" x2="14" y2="31"/><line class="cls-3" x1="47.17" y1="17.33" x2="47.17" y2="32"/><line class="cls-3" x1="50.83" y1="27.34" x2="50.83" y2="42"/><line class="cls-3" x1="52.82" y1="20" x2="52.82" y2="34.67"/><line class="cls-3" x1="58.67" y1="17.33" x2="58.67" y2="32"/><line class="cls-3" x1="60" y1="21" x2="60" y2="35.67"/><line class="cls-3" x1="56.17" y1="11.83" x2="56.17" y2="26.5"/><line class="cls-3" x1="48.67" y1="13.83" x2="48.67" y2="28.5"/><line class="cls-3" x1="46.67" y1="26.01" x2="61.33" y2="26.01"/><line class="cls-3" x1="40.33" y1="48.34" x2="40.33" y2="63"/><line class="cls-3" x1="41.67" y1="55.67" x2="41.67" y2="70.34"/><line class="cls-3" x1="38.34" y1="45.34" x2="38.34" y2="60"/><line class="cls-3" x1="43" y1="48.34" x2="43" y2="63"/><line class="cls-3" x1="65" y1="21.67" x2="65" y2="36.34"/><line class="cls-3" x1="54.83" y1="25" x2="54.83" y2="39.67"/><line class="cls-3" x1="63.33" y1="15.17" x2="63.33" y2="29.84"/><line class="cls-3" x1="67" y1="10.5" x2="67" y2="25.17"/><line class="cls-3" x1="68.51" y1="12.67" x2="68.51" y2="27.33"/><line class="cls-3" x1="70.5" y1="17.5" x2="70.5" y2="32.17"/><line class="cls-3" x1="77" y1="23.33" x2="62.33" y2="23.33"/><line class="cls-3" x1="70" y1="20.33" x2="55.33" y2="20.33"/><line class="cls-3" x1="64.33" y1="18" x2="49.67" y2="18"/><line class="cls-3" x1="68.67" y1="11.67" x2="54" y2="11.67"/><line class="cls-3" x1="77.5" y1="26.83" x2="62.83" y2="26.83"/><line class="cls-3" x1="71.83" y1="30.67" x2="57.17" y2="30.67"/><line class="cls-3" x1="80.5" y1="28.83" x2="65.83" y2="28.83"/><line class="cls-3" x1="41.83" y1="34.84" x2="41.83" y2="49.5"/><line class="cls-3" x1="44.33" y1="37.84" x2="44.33" y2="52.5"/><line class="cls-3" x1="59.67" y1="40.84" x2="59.67" y2="55.5"/><line class="cls-3" x1="46.83" y1="34.34" x2="46.83" y2="49"/><line class="cls-3" x1="37.83" y1="43" x2="52.5" y2="43"/><line class="cls-3" x1="43.5" y1="47.84" x2="58.17" y2="47.84"/><line class="cls-3" x1="66.17" y1="18.67" x2="80.83" y2="18.67"/><line class="cls-3" x1="76.67" y1="32.84" x2="62" y2="32.84"/><line class="cls-3" x1="80.67" y1="34.84" x2="66" y2="34.84"/><line class="cls-3" x1="75" y1="37.17" x2="60.33" y2="37.17"/><line class="cls-3" x1="53.17" y1="43" x2="53.17" y2="57.67"/><line class="cls-3" x1="56.67" y1="49" x2="56.67" y2="63.67"/><line class="cls-3" x1="52.67" y1="56.67" x2="52.67" y2="71.33"/><line class="cls-3" x1="50.33" y1="54.34" x2="50.33" y2="69"/><line class="cls-3" x1="60.17" y1="53.17" x2="45.5" y2="53.17"/><line class="cls-3" x1="52.17" y1="50.5" x2="37.5" y2="50.5"/><line class="cls-3" x1="41.83" y1="47.5" x2="27.17" y2="47.5"/><line class="cls-3" x1="52" y1="31.84" x2="52" y2="46.5"/><line class="cls-3" x1="39" y1="63.67" x2="39" y2="78.34"/><line class="cls-3" x1="65" y1="46.84" x2="65" y2="61.5"/><line class="cls-3" x1="58.16" y1="35.5" x2="58.16" y2="50.17"/><line class="cls-3" x1="61.33" y1="30.17" x2="61.33" y2="44.83"/><line class="cls-3" x1="54.66" y1="41.5" x2="54.66" y2="56.17"/><line class="cls-3" x1="66.66" y1="38.5" x2="66.66" y2="53.17"/><line class="cls-3" x1="69.66" y1="33" x2="69.66" y2="47.67"/><line class="cls-3" x1="68" y1="32.67" x2="68" y2="47.34"/><line class="cls-3" x1="63.16" y1="35" x2="63.16" y2="49.67"/><line class="cls-3" x1="59.83" y1="48.51" x2="74.5" y2="48.51"/><line class="cls-3" x1="63.17" y1="51.51" x2="77.83" y2="51.51"/><line class="cls-3" x1="65.16" y1="47.17" x2="79.83" y2="47.17"/><line class="cls-3" x1="65.16" y1="41.84" x2="79.83" y2="41.84"/><line class="cls-3" x1="67.83" y1="44.51" x2="82.5" y2="44.51"/><line class="cls-3" x1="69.83" y1="39.51" x2="84.5" y2="39.51"/><line class="cls-3" x1="38.17" y1="61.84" x2="52.83" y2="61.84"/><line class="cls-3" x1="42.5" y1="59.18" x2="57.16" y2="59.18"/><line class="cls-3" x1="41.83" y1="54.51" x2="56.5" y2="54.51"/><line class="cls-3" x1="26.17" y1="44.51" x2="40.83" y2="44.51"/><line class="cls-3" x1="51.16" y1="45.67" x2="65.83" y2="45.67"/><line class="cls-3" x1="51.5" y1="43.67" x2="66.16" y2="43.67"/><line class="cls-3" x1="57" y1="29.5" x2="57" y2="44.17"/><line class="cls-3" x1="54.83" y1="26" x2="54.83" y2="40.67"/><line class="cls-3" x1="48.5" y1="31.67" x2="48.5" y2="46.34"/><line class="cls-3" x1="45.83" y1="37.34" x2="60.5" y2="37.34"/><line class="cls-3" x1="48.5" y1="28.67" x2="63.17" y2="28.67"/><line class="cls-3" x1="51.5" y1="39.51" x2="66.17" y2="39.51"/><line class="cls-3" x1="68.5" y1="7" x2="83.17" y2="7"/><line class="cls-3" x1="66.83" y1="13.67" x2="81.5" y2="13.67"/><line class="cls-3" x1="3.83" y1="2.83" x2="-10.83" y2="2.83"/><line class="cls-3" x1="7.33" y1="8.33" x2="-7.33" y2="8.33"/><line class="cls-3" x1="-10.5" y1="16.51" x2="4.16" y2="16.51"/><line class="cls-3" x1="-6.83" y1="65.51" x2="7.83" y2="65.51"/><line class="cls-3" x1="-10.5" y1="70.18" x2="4.17" y2="70.18"/><line class="cls-3" x1="-5.17" y1="68.18" x2="9.5" y2="68.18"/><line class="cls-3" x1="-9.83" y1="63.18" x2="4.83" y2="63.18"/><line class="cls-3" x1="-5.17" y1="54.51" x2="9.5" y2="54.51"/><line class="cls-3" x1="-8.5" y1="58.84" x2="6.17" y2="58.84"/><line class="cls-3" x1="5" y1="23.33" x2="-9.67" y2="23.33"/><line class="cls-3" x1="5.5" y1="26.83" x2="-9.17" y2="26.83"/><line class="cls-3" x1="8.5" y1="28.83" x2="-6.17" y2="28.83"/><line class="cls-3" x1="-5.83" y1="18.67" x2="8.83" y2="18.67"/><line class="cls-3" x1="4.67" y1="32.84" x2="-10" y2="32.84"/><line class="cls-3" x1="8.67" y1="34.84" x2="-6" y2="34.84"/><line class="cls-3" x1="3" y1="37.17" x2="-11.67" y2="37.17"/><line class="cls-3" x1="-8.83" y1="51.51" x2="5.83" y2="51.51"/><line class="cls-3" x1="-6.83" y1="47.17" x2="7.83" y2="47.17"/><line class="cls-3" x1="-6.83" y1="41.84" x2="7.83" y2="41.84"/><line class="cls-3" x1="-4.17" y1="44.51" x2="10.5" y2="44.51"/><line class="cls-3" x1="-2.17" y1="39.51" x2="12.5" y2="39.51"/><line class="cls-3" x1="13" y1="64.84" x2="13" y2="79.5"/><line class="cls-3" x1="10.33" y1="62.5" x2="10.33" y2="77.17"/><line class="cls-3" x1="63.33" y1="68.34" x2="63.33" y2="83"/><line class="cls-3" x1="60.83" y1="67.67" x2="60.83" y2="82.34"/><line class="cls-3" x1="37.5" y1="68.34" x2="37.5" y2="83"/><line class="cls-3" x1="68.67" y1="68.34" x2="68.67" y2="83"/><line class="cls-3" x1="43.17" y1="66.5" x2="43.17" y2="81.17"/><line class="cls-3" x1="16.83" y1="67.67" x2="16.83" y2="82.34"/><line class="cls-3" x1="1.83" y1="67.5" x2="1.83" y2="82.17"/><line class="cls-3" x1="6.83" y1="65.5" x2="6.83" y2="80.17"/><line class="cls-3" x1="34.83" y1="68.34" x2="34.83" y2="83"/><line class="cls-3" x1="58.5" y1="60" x2="58.5" y2="74.67"/><line class="cls-3" x1="33.17" y1="60" x2="33.17" y2="74.67"/><line class="cls-3" x1="3.83" y1="2.83" x2="-10.83" y2="2.83"/><line class="cls-3" x1="2.33" y1="5.33" x2="-12.33" y2="5.33"/><line class="cls-3" x1="7.33" y1="8.33" x2="-7.33" y2="8.33"/><line class="cls-3" x1="-10.5" y1="16.51" x2="4.17" y2="16.51"/><line class="cls-3" x1="-6.83" y1="65.51" x2="7.83" y2="65.51"/><line class="cls-3" x1="-10.5" y1="70.18" x2="4.17" y2="70.18"/><line class="cls-3" x1="-5.17" y1="68.18" x2="9.5" y2="68.18"/><line class="cls-3" x1="-9.83" y1="63.18" x2="4.83" y2="63.18"/><line class="cls-3" x1="-12.83" y1="56.51" x2="1.83" y2="56.51"/><line class="cls-3" x1="-5.17" y1="54.51" x2="9.5" y2="54.51"/><line class="cls-3" x1="-8.5" y1="58.84" x2="6.17" y2="58.84"/><line class="cls-3" x1="5" y1="23.33" x2="-9.67" y2="23.33"/><line class="cls-3" x1="5.5" y1="26.83" x2="-9.17" y2="26.83"/><line class="cls-3" x1="8.5" y1="28.83" x2="-6.17" y2="28.83"/><line class="cls-3" x1="-5.83" y1="18.67" x2="8.83" y2="18.67"/><line class="cls-3" x1="4.67" y1="32.84" x2="-10" y2="32.84"/><line class="cls-3" x1="8.67" y1="34.84" x2="-6" y2="34.84"/><line class="cls-3" x1="3" y1="37.17" x2="-11.67" y2="37.17"/><line class="cls-3" x1="-12.17" y1="48.51" x2="2.5" y2="48.51"/><line class="cls-3" x1="-8.83" y1="51.51" x2="5.83" y2="51.51"/><line class="cls-3" x1="-6.83" y1="47.17" x2="7.83" y2="47.17"/><line class="cls-3" x1="-6.83" y1="41.84" x2="7.83" y2="41.84"/><line class="cls-3" x1="-4.17" y1="44.51" x2="10.5" y2="44.51"/><line class="cls-3" x1="-2.17" y1="39.51" x2="12.5" y2="39.51"/><line class="cls-3" x1="-3.5" y1="7" x2="11.17" y2="7"/><line class="cls-3" x1="-5.17" y1="13.67" x2="9.5" y2="13.67"/><line class="cls-3" x1="58.5" y1="-12" x2="58.5" y2="2.67"/><line class="cls-3" x1="60" y1="-13.5" x2="60" y2="1.17"/><line class="cls-3" x1="65.33" y1="-8" x2="65.33" y2="6.67"/><line class="cls-3" x1="69.67" y1="-10.67" x2="69.67" y2="4"/><line class="cls-3" x1="19.33" y1="-13.17" x2="19.33" y2="1.5"/><line class="cls-3" x1="25.83" y1="-12.33" x2="25.83" y2="2.33"/><line class="cls-3" x1="33.17" y1="-12" x2="33.17" y2="2.67"/><line class="cls-3" x1="31" y1="-13.17" x2="31" y2="1.5"/><line class="cls-3" x1="37.17" y1="-14.33" x2="37.17" y2="0.33"/><line class="cls-3" x1="55" y1="-14.33" x2="55" y2="0.33"/><line class="cls-3" x1="48" y1="-6.33" x2="48" y2="8.33"/><line class="cls-3" x1="39" y1="-8.33" x2="39" y2="6.33"/><line class="cls-3" x1="13" y1="-7.17" x2="13" y2="7.5"/><line class="cls-3" x1="10.33" y1="-9.5" x2="10.33" y2="5.17"/><line class="cls-3" x1="63.33" y1="-3.67" x2="63.33" y2="11"/><line class="cls-3" x1="60.83" y1="-4.33" x2="60.83" y2="10.33"/><line class="cls-3" x1="37.5" y1="-3.67" x2="37.5" y2="11"/><line class="cls-3" x1="68.67" y1="-3.67" x2="68.67" y2="11"/><line class="cls-3" x1="43.17" y1="-5.5" x2="43.17" y2="9.17"/><line class="cls-3" x1="16.83" y1="-4.33" x2="16.83" y2="10.33"/><line class="cls-3" x1="1.83" y1="-4.5" x2="1.83" y2="10.17"/><line class="cls-3" x1="6.83" y1="-6.5" x2="6.83" y2="8.17"/><line class="cls-3" x1="34.83" y1="-3.67" x2="34.83" y2="11"/><line class="cls-3" x1="58.5" y1="-12" x2="58.5" y2="2.67"/><line class="cls-3" x1="33.17" y1="-12" x2="33.17" y2="2.67"/></pattern><clipPath id="clip-path"><ellipse class="cls-1" cx="47.99" cy="47.99" rx="47.49" ry="47.47"/></clipPath><pattern id="Burlap-5" data-name="Burlap" width="72" height="72" patternUnits="userSpaceOnUse" viewBox="0 0 72 72"><rect class="cls-2" width="72" height="72"/><line class="cls-3" x1="70.33" y1="72.17" x2="85" y2="72.17"/><line class="cls-3" x1="-1.67" y1="72.17" x2="13" y2="72.17"/><line class="cls-3" x1="68.5" y1="7" x2="83.16" y2="7"/><line class="cls-3" x1="66.83" y1="13.67" x2="81.5" y2="13.67"/><line class="cls-3" x1="70.33" y1="0.17" x2="85" y2="0.17"/><line class="cls-3" x1="71.33" y1="31" x2="86" y2="31"/><line class="cls-3" x1="75.83" y1="2.83" x2="61.16" y2="2.83"/><line class="cls-3" x1="79.33" y1="8.33" x2="64.66" y2="8.33"/><line class="cls-3" x1="61.5" y1="16.51" x2="76.16" y2="16.51"/><line class="cls-3" x1="65.16" y1="65.51" x2="79.83" y2="65.51"/><line class="cls-3" x1="61.5" y1="70.18" x2="76.16" y2="70.18"/><line class="cls-3" x1="66.83" y1="68.18" x2="81.5" y2="68.18"/><line class="cls-3" x1="62.16" y1="63.18" x2="76.83" y2="63.18"/><line class="cls-3" x1="66.83" y1="54.51" x2="81.5" y2="54.51"/><line class="cls-3" x1="63.5" y1="58.84" x2="78.16" y2="58.84"/><line class="cls-3" x1="77" y1="23.33" x2="62.33" y2="23.33"/><line class="cls-3" x1="77.5" y1="26.83" x2="62.83" y2="26.83"/><line class="cls-3" x1="80.5" y1="28.83" x2="65.83" y2="28.83"/><line class="cls-3" x1="66.16" y1="18.67" x2="80.83" y2="18.67"/><line class="cls-3" x1="76.66" y1="32.84" x2="62" y2="32.84"/><line class="cls-3" x1="80.66" y1="34.84" x2="66" y2="34.84"/><line class="cls-3" x1="75" y1="37.17" x2="60.33" y2="37.17"/><line class="cls-3" x1="63.16" y1="51.51" x2="77.83" y2="51.51"/><line class="cls-3" x1="65.16" y1="47.17" x2="79.83" y2="47.17"/><line class="cls-3" x1="65.16" y1="41.84" x2="79.83" y2="41.84"/><line class="cls-3" x1="67.83" y1="44.51" x2="82.5" y2="44.51"/><line class="cls-3" x1="69.83" y1="39.51" x2="84.5" y2="39.51"/><line class="cls-3" x1="9.67" y1="5.67" x2="9.67" y2="20.33"/><line class="cls-3" x1="12.17" y1="8.67" x2="12.17" y2="23.34"/><line class="cls-3" x1="8.5" y1="18.33" x2="8.5" y2="33"/><line class="cls-3" x1="15.83" y1="18.67" x2="15.83" y2="33.34"/><line class="cls-3" x1="6.17" y1="11.67" x2="6.17" y2="26.34"/><line class="cls-3" x1="18.17" y1="8.67" x2="18.17" y2="23.34"/><line class="cls-3" x1="23.67" y1="8.67" x2="23.67" y2="23.34"/><line class="cls-3" x1="25" y1="12.33" x2="25" y2="27"/><line class="cls-3" x1="21.17" y1="3.17" x2="21.17" y2="17.83"/><line class="cls-3" x1="14.67" y1="5.17" x2="14.67" y2="19.83"/><line class="cls-3" x1="1.17" y1="11" x2="15.83" y2="11"/><line class="cls-3" x1="-3.5" y1="7" x2="11.17" y2="7"/><line class="cls-3" x1="-5.17" y1="13.67" x2="9.5" y2="13.67"/><line class="cls-3" x1="13.17" y1="7.33" x2="27.83" y2="7.33"/><line class="cls-3" x1="8" y1="9.17" x2="22.67" y2="9.17"/><line class="cls-3" x1="11.67" y1="17.34" x2="26.33" y2="17.34"/><line class="cls-3" x1="5" y1="14.83" x2="19.67" y2="14.83"/><line class="cls-3" x1="38.5" y1="10" x2="38.5" y2="24.67"/><line class="cls-3" x1="36" y1="13" x2="36" y2="27.67"/><line class="cls-3" x1="42" y1="16" x2="42" y2="30.67"/><line class="cls-3" x1="43.33" y1="23.34" x2="43.33" y2="38"/><line class="cls-3" x1="44.67" y1="16" x2="44.67" y2="30.67"/><line class="cls-3" x1="30" y1="13" x2="30" y2="27.67"/><line class="cls-3" x1="19.83" y1="16.33" x2="19.83" y2="31"/><line class="cls-3" x1="28.33" y1="6.5" x2="28.33" y2="21.17"/><line class="cls-3" x1="26.67" y1="3.17" x2="26.67" y2="17.83"/><line class="cls-3" x1="33.5" y1="8.17" x2="33.5" y2="22.84"/><line class="cls-3" x1="42" y1="14.67" x2="27.33" y2="14.67"/><line class="cls-3" x1="33.67" y1="12.67" x2="19" y2="12.67"/><line class="cls-3" x1="42.5" y1="18.17" x2="27.83" y2="18.17"/><line class="cls-3" x1="36.83" y1="22.01" x2="22.17" y2="22.01"/><line class="cls-3" x1="45.5" y1="20.17" x2="30.83" y2="20.17"/><line class="cls-3" x1="70.84" y1="1.17" x2="70.84" y2="15.83"/><line class="cls-3" x1="66.17" y1="1.17" x2="66.17" y2="15.83"/><line class="cls-3" x1="58.33" y1="1.17" x2="58.33" y2="15.83"/><line class="cls-3" x1="75.83" y1="2.83" x2="61.17" y2="2.83"/><line class="cls-3" x1="74.33" y1="5.33" x2="59.67" y2="5.33"/><line class="cls-3" x1="70.33" y1="9.84" x2="55.67" y2="9.84"/><line class="cls-3" x1="62.33" y1="8.51" x2="47.67" y2="8.51"/><line class="cls-3" x1="79.33" y1="8.33" x2="64.67" y2="8.33"/><line class="cls-3" x1="41.5" y1="2.5" x2="41.5" y2="17.17"/><line class="cls-3" x1="46" y1="5.5" x2="46" y2="20.17"/><line class="cls-3" x1="40" y1="8.5" x2="40" y2="23.17"/><line class="cls-3" x1="52.67" y1="4.84" x2="52.67" y2="19.5"/><line class="cls-3" x1="62.17" y1="8.83" x2="62.17" y2="23.5"/><line class="cls-3" x1="55" x2="55" y2="14.67"/><line class="cls-3" x1="50.16" y1="1" x2="50.16" y2="15.67"/><line class="cls-3" x1="39.83" y1="2.33" x2="54.5" y2="2.33"/><line class="cls-3" x1="47" y1="4.17" x2="61.67" y2="4.17"/><line class="cls-3" x1="38.67" y1="5.83" x2="53.33" y2="5.83"/><line class="cls-3" x1="39.5" y1="10.67" x2="54.17" y2="10.67"/><line class="cls-3" x1="45.17" y1="15.51" x2="59.83" y2="15.51"/><line class="cls-3" x1="48.83" y1="13.51" x2="63.5" y2="13.51"/><line class="cls-3" x1="36.5" y1="12.67" x2="51.17" y2="12.67"/><line class="cls-3" x1="31.5" y1="1.67" x2="31.5" y2="16.33"/><line class="cls-3" x1="29.83" y1="1" x2="29.83" y2="15.67"/><line class="cls-3" x1="23.83" y1="1.67" x2="23.83" y2="16.33"/><line class="cls-3" x1="2" y1="38.34" x2="2" y2="53"/><line class="cls-3" x1="1.5" y1="21.84" x2="1.5" y2="36.5"/><line class="cls-3" x1="2.67" y1="9.83" x2="2.67" y2="24.5"/><line class="cls-3" x1="0.67" y1="7.33" x2="0.67" y2="22"/><line class="cls-3" x1="-1.67" y1="0.17" x2="13" y2="0.17"/><line class="cls-3" x1="6.67" y1="1.83" x2="21.33" y2="1.83"/><line class="cls-3" x1="1.17" y1="4.33" x2="15.83" y2="4.33"/><line class="cls-3" x1="23.17" y1="5" x2="37.83" y2="5"/><line class="cls-3" x1="18.17" y1="3.67" x2="32.83" y2="3.67"/><line class="cls-3" x1="20.17" y1="1" x2="34.83" y2="1"/><line class="cls-3" x1="25.5" y1="9.33" x2="40.17" y2="9.33"/><line class="cls-3" x1="41.67" y1="24.17" x2="27" y2="24.17"/><line class="cls-3" x1="45.67" y1="26.17" x2="31" y2="26.17"/><line class="cls-3" x1="40" y1="28.51" x2="25.33" y2="28.51"/><line class="cls-3" x1="18.17" y1="34.34" x2="18.17" y2="49"/><line class="cls-3" x1="21.67" y1="40.34" x2="21.67" y2="55"/><line class="cls-3" x1="16" y1="36.67" x2="1.33" y2="36.67"/><line class="cls-3" x1="27" y1="40.67" x2="12.33" y2="40.67"/><line class="cls-3" x1="22.17" y1="42.5" x2="7.5" y2="42.5"/><line class="cls-3" x1="25.17" y1="44.5" x2="10.5" y2="44.5"/><line class="cls-3" x1="38" y1="25.5" x2="38" y2="40.17"/><line class="cls-3" x1="39.33" y1="31.34" x2="39.33" y2="46"/><line class="cls-3" x1="23.17" y1="26.84" x2="23.17" y2="41.5"/><line class="cls-3" x1="26.33" y1="21.5" x2="26.33" y2="36.17"/><line class="cls-3" x1="31.67" y1="29.84" x2="31.67" y2="44.5"/><line class="cls-3" x1="34.67" y1="24.34" x2="34.67" y2="39"/><line class="cls-3" x1="33" y1="24" x2="33" y2="38.67"/><line class="cls-3" x1="28.17" y1="26.34" x2="28.17" y2="41"/><line class="cls-3" x1="24.83" y1="39.84" x2="39.5" y2="39.84"/><line class="cls-3" x1="27.5" y1="41.17" x2="42.17" y2="41.17"/><line class="cls-3" x1="30.17" y1="38.51" x2="44.83" y2="38.51"/><line class="cls-3" x1="30.17" y1="33.17" x2="44.83" y2="33.17"/><line class="cls-3" x1="32.83" y1="35.84" x2="47.5" y2="35.84"/><line class="cls-3" x1="46.16" y1="33.17" x2="60.83" y2="33.17"/><line class="cls-3" x1="34.83" y1="30.84" x2="49.5" y2="30.84"/><line class="cls-3" x1="61.5" y1="16.51" x2="76.16" y2="16.51"/><line class="cls-3" x1="45.5" y1="23.51" x2="60.16" y2="23.51"/><line class="cls-3" x1="43.5" y1="21.17" x2="58.16" y2="21.17"/><line class="cls-3" x1="16.17" y1="37" x2="30.83" y2="37"/><line class="cls-3" x1="16.5" y1="35" x2="31.17" y2="35"/><line class="cls-3" x1="30.33" y1="45.84" x2="15.67" y2="45.84"/><line class="cls-3" x1="22" y1="20.84" x2="22" y2="35.5"/><line class="cls-3" x1="19.83" y1="17.33" x2="19.83" y2="32"/><line class="cls-3" x1="10.83" y1="26" x2="25.5" y2="26"/><line class="cls-3" x1="3.83" y1="24.67" x2="18.5" y2="24.67"/><line class="cls-3" x1="5.5" y1="22.67" x2="20.17" y2="22.67"/><line class="cls-3" x1="4.17" y1="20" x2="18.83" y2="20"/><line class="cls-3" x1="13.5" y1="20" x2="28.17" y2="20"/><line class="cls-3" x1="7" y1="43.67" x2="7" y2="58.34"/><line class="cls-3" x1="9.5" y1="46.67" x2="9.5" y2="61.34"/><line class="cls-3" x1="5.83" y1="56.34" x2="5.83" y2="71"/><line class="cls-3" x1="2.83" y1="54" x2="2.83" y2="68.67"/><line class="cls-3" x1="13.17" y1="56.67" x2="13.17" y2="71.34"/><line class="cls-3" x1="15.5" y1="46.67" x2="15.5" y2="61.34"/><line class="cls-3" x1="25" y1="38.33" x2="25" y2="53"/><line class="cls-3" x1="58.5" y1="60" x2="58.5" y2="74.67"/><line class="cls-3" x1="61.33" y1="47.34" x2="61.33" y2="62"/><line class="cls-3" x1="58" y1="64" x2="43.33" y2="64"/><line class="cls-3" x1="62.5" y1="68.17" x2="47.83" y2="68.17"/><line class="cls-3" x1="59.83" y1="70.17" x2="45.17" y2="70.17"/><line class="cls-3" x1="63.83" y1="66.5" x2="49.17" y2="66.5"/><line class="cls-3" x1="63.5" y1="52.5" x2="63.5" y2="67.17"/><line class="cls-3" x1="60" y1="58.5" x2="60" y2="73.17"/><line class="cls-3" x1="48.66" y1="47.84" x2="48.66" y2="62.5"/><line class="cls-3" x1="47" y1="50.5" x2="47" y2="65.17"/><line class="cls-3" x1="45" y1="56.34" x2="45" y2="71"/><line class="cls-3" x1="67.16" y1="54.33" x2="67.16" y2="69"/><line class="cls-3" x1="68.83" y1="48.33" x2="68.83" y2="63"/><line class="cls-3" x1="71.16" y1="46" x2="71.16" y2="60.67"/><line class="cls-3" x1="65.16" y1="65.51" x2="79.83" y2="65.51"/><line class="cls-3" x1="61.5" y1="70.18" x2="76.16" y2="70.18"/><line class="cls-3" x1="66.83" y1="68.18" x2="81.5" y2="68.18"/><line class="cls-3" x1="62.16" y1="63.18" x2="76.83" y2="63.18"/><line class="cls-3" x1="59.16" y1="56.51" x2="73.83" y2="56.51"/><line class="cls-3" x1="66.83" y1="54.51" x2="81.5" y2="54.51"/><line class="cls-3" x1="63.5" y1="58.84" x2="78.16" y2="58.84"/><line class="cls-3" x1="65.33" y1="64" x2="65.33" y2="78.67"/><line class="cls-3" x1="69.67" y1="61.33" x2="69.67" y2="76"/><line class="cls-3" x1="3.5" y1="48.34" x2="18.17" y2="48.34"/><line class="cls-3" x1="8.17" y1="67.67" x2="22.83" y2="67.67"/><line class="cls-3" x1="5" y1="50.84" x2="19.67" y2="50.84"/><line class="cls-3" x1="9" y1="55.34" x2="23.67" y2="55.34"/><line class="cls-3" x1="20" y1="52.34" x2="34.67" y2="52.34"/><line class="cls-3" x1="0.83" y1="52.5" x2="15.5" y2="52.5"/><line class="cls-3" x1="17.67" y1="52" x2="17.67" y2="66.67"/><line class="cls-3" x1="32.33" y1="49.67" x2="17.67" y2="49.67"/><line class="cls-3" x1="34.17" y1="60.01" x2="19.5" y2="60.01"/><line class="cls-3" x1="35.83" y1="61.68" x2="21.17" y2="61.68"/><line class="cls-3" x1="34.34" y1="56.68" x2="19.67" y2="56.68"/><line class="cls-3" x1="39" y1="54.01" x2="24.33" y2="54.01"/><line class="cls-3" x1="19.33" y1="58.84" x2="19.33" y2="73.5"/><line class="cls-3" x1="12.5" y1="38" x2="12.5" y2="52.67"/><line class="cls-3" x1="10.83" y1="32.67" x2="10.83" y2="47.34"/><line class="cls-3" x1="13.83" y1="29.67" x2="13.83" y2="44.34"/><line class="cls-3" x1="8.5" y1="31.34" x2="8.5" y2="46"/><line class="cls-3" x1="4.83" y1="32.34" x2="4.83" y2="47"/><line class="cls-3" x1="6.83" y1="27.67" x2="6.83" y2="42.34"/><line class="cls-3" x1="8.17" y1="64" x2="22.83" y2="64"/><line class="cls-3" x1="1" y1="62.34" x2="15.67" y2="62.34"/><line class="cls-3" x1="2.83" y1="60.67" x2="17.5" y2="60.67"/><line class="cls-3" x1="29.5" y1="50" x2="29.5" y2="64.67"/><line class="cls-3" x1="26.49" y1="43" x2="26.49" y2="57.67"/><line class="cls-3" x1="25.83" y1="59.67" x2="25.83" y2="74.34"/><line class="cls-3" x1="33.17" y1="60" x2="33.17" y2="74.67"/><line class="cls-3" x1="23.5" y1="53" x2="23.5" y2="67.67"/><line class="cls-3" x1="35.5" y1="50" x2="35.5" y2="64.67"/><line class="cls-3" x1="31" y1="58.84" x2="31" y2="73.5"/><line class="cls-3" x1="28" y1="54.84" x2="28" y2="69.5"/><line class="cls-3" x1="28.17" y1="71" x2="42.83" y2="71"/><line class="cls-3" x1="30.17" y1="68.67" x2="44.83" y2="68.67"/><line class="cls-3" x1="37.17" y1="57.67" x2="37.17" y2="72.34"/><line class="cls-3" x1="32.5" y1="45.34" x2="32.5" y2="60"/><line class="cls-3" x1="55" y1="57.67" x2="55" y2="72.34"/><line class="cls-3" x1="48" y1="65.67" x2="48" y2="80.34"/><line class="cls-3" x1="34.17" y1="40.67" x2="34.17" y2="55.34"/><line class="cls-3" x1="28.17" y1="67.34" x2="42.83" y2="67.34"/><line class="cls-3" x1="21.17" y1="66" x2="35.83" y2="66"/><line class="cls-3" x1="13.17" y1="69.34" x2="27.83" y2="69.34"/><line class="cls-3" x1="7.83" y1="70.67" x2="22.5" y2="70.67"/><line class="cls-3" x1="22.83" y1="64" x2="37.5" y2="64"/><line class="cls-3" x1="1.5" y1="58" x2="16.17" y2="58"/><line class="cls-3" x1="10.83" y1="58" x2="25.5" y2="58"/><line class="cls-3" x1="16.5" y1="30.84" x2="31.17" y2="30.84"/><line class="cls-3" x1="7.83" y1="28" x2="22.5" y2="28"/><line class="cls-3" x1="6.67" y1="33.34" x2="21.33" y2="33.34"/><line class="cls-3" x1="-0.67" y1="31" x2="14" y2="31"/><line class="cls-3" x1="47.17" y1="17.33" x2="47.17" y2="32"/><line class="cls-3" x1="50.83" y1="27.34" x2="50.83" y2="42"/><line class="cls-3" x1="52.82" y1="20" x2="52.82" y2="34.67"/><line class="cls-3" x1="58.67" y1="17.33" x2="58.67" y2="32"/><line class="cls-3" x1="60" y1="21" x2="60" y2="35.67"/><line class="cls-3" x1="56.17" y1="11.83" x2="56.17" y2="26.5"/><line class="cls-3" x1="48.67" y1="13.83" x2="48.67" y2="28.5"/><line class="cls-3" x1="46.67" y1="26.01" x2="61.33" y2="26.01"/><line class="cls-3" x1="40.33" y1="48.34" x2="40.33" y2="63"/><line class="cls-3" x1="41.67" y1="55.67" x2="41.67" y2="70.34"/><line class="cls-3" x1="38.34" y1="45.34" x2="38.34" y2="60"/><line class="cls-3" x1="43" y1="48.34" x2="43" y2="63"/><line class="cls-3" x1="65" y1="21.67" x2="65" y2="36.34"/><line class="cls-3" x1="54.83" y1="25" x2="54.83" y2="39.67"/><line class="cls-3" x1="63.33" y1="15.17" x2="63.33" y2="29.84"/><line class="cls-3" x1="67" y1="10.5" x2="67" y2="25.17"/><line class="cls-3" x1="68.51" y1="12.67" x2="68.51" y2="27.33"/><line class="cls-3" x1="70.5" y1="17.5" x2="70.5" y2="32.17"/><line class="cls-3" x1="77" y1="23.33" x2="62.33" y2="23.33"/><line class="cls-3" x1="70" y1="20.33" x2="55.33" y2="20.33"/><line class="cls-3" x1="64.33" y1="18" x2="49.67" y2="18"/><line class="cls-3" x1="68.67" y1="11.67" x2="54" y2="11.67"/><line class="cls-3" x1="77.5" y1="26.83" x2="62.83" y2="26.83"/><line class="cls-3" x1="71.83" y1="30.67" x2="57.17" y2="30.67"/><line class="cls-3" x1="80.5" y1="28.83" x2="65.83" y2="28.83"/><line class="cls-3" x1="41.83" y1="34.84" x2="41.83" y2="49.5"/><line class="cls-3" x1="44.33" y1="37.84" x2="44.33" y2="52.5"/><line class="cls-3" x1="59.67" y1="40.84" x2="59.67" y2="55.5"/><line class="cls-3" x1="46.83" y1="34.34" x2="46.83" y2="49"/><line class="cls-3" x1="37.83" y1="43" x2="52.5" y2="43"/><line class="cls-3" x1="43.5" y1="47.84" x2="58.17" y2="47.84"/><line class="cls-3" x1="66.17" y1="18.67" x2="80.83" y2="18.67"/><line class="cls-3" x1="76.67" y1="32.84" x2="62" y2="32.84"/><line class="cls-3" x1="80.67" y1="34.84" x2="66" y2="34.84"/><line class="cls-3" x1="75" y1="37.17" x2="60.33" y2="37.17"/><line class="cls-3" x1="53.17" y1="43" x2="53.17" y2="57.67"/><line class="cls-3" x1="56.67" y1="49" x2="56.67" y2="63.67"/><line class="cls-3" x1="52.67" y1="56.67" x2="52.67" y2="71.33"/><line class="cls-3" x1="50.33" y1="54.34" x2="50.33" y2="69"/><line class="cls-3" x1="60.17" y1="53.17" x2="45.5" y2="53.17"/><line class="cls-3" x1="52.17" y1="50.5" x2="37.5" y2="50.5"/><line class="cls-3" x1="41.83" y1="47.5" x2="27.17" y2="47.5"/><line class="cls-3" x1="52" y1="31.84" x2="52" y2="46.5"/><line class="cls-3" x1="39" y1="63.67" x2="39" y2="78.34"/><line class="cls-3" x1="65" y1="46.84" x2="65" y2="61.5"/><line class="cls-3" x1="58.16" y1="35.5" x2="58.16" y2="50.17"/><line class="cls-3" x1="61.33" y1="30.17" x2="61.33" y2="44.83"/><line class="cls-3" x1="54.66" y1="41.5" x2="54.66" y2="56.17"/><line class="cls-3" x1="66.66" y1="38.5" x2="66.66" y2="53.17"/><line class="cls-3" x1="69.66" y1="33" x2="69.66" y2="47.67"/><line class="cls-3" x1="68" y1="32.67" x2="68" y2="47.34"/><line class="cls-3" x1="63.16" y1="35" x2="63.16" y2="49.67"/><line class="cls-3" x1="59.83" y1="48.51" x2="74.5" y2="48.51"/><line class="cls-3" x1="63.17" y1="51.51" x2="77.83" y2="51.51"/><line class="cls-3" x1="65.16" y1="47.17" x2="79.83" y2="47.17"/><line class="cls-3" x1="65.16" y1="41.84" x2="79.83" y2="41.84"/><line class="cls-3" x1="67.83" y1="44.51" x2="82.5" y2="44.51"/><line class="cls-3" x1="69.83" y1="39.51" x2="84.5" y2="39.51"/><line class="cls-3" x1="38.17" y1="61.84" x2="52.83" y2="61.84"/><line class="cls-3" x1="42.5" y1="59.18" x2="57.16" y2="59.18"/><line class="cls-3" x1="41.83" y1="54.51" x2="56.5" y2="54.51"/><line class="cls-3" x1="26.17" y1="44.51" x2="40.83" y2="44.51"/><line class="cls-3" x1="51.16" y1="45.67" x2="65.83" y2="45.67"/><line class="cls-3" x1="51.5" y1="43.67" x2="66.16" y2="43.67"/><line class="cls-3" x1="57" y1="29.5" x2="57" y2="44.17"/><line class="cls-3" x1="54.83" y1="26" x2="54.83" y2="40.67"/><line class="cls-3" x1="48.5" y1="31.67" x2="48.5" y2="46.34"/><line class="cls-3" x1="45.83" y1="37.34" x2="60.5" y2="37.34"/><line class="cls-3" x1="48.5" y1="28.67" x2="63.17" y2="28.67"/><line class="cls-3" x1="51.5" y1="39.51" x2="66.17" y2="39.51"/><line class="cls-3" x1="68.5" y1="7" x2="83.17" y2="7"/><line class="cls-3" x1="66.83" y1="13.67" x2="81.5" y2="13.67"/><line class="cls-3" x1="3.83" y1="2.83" x2="-10.83" y2="2.83"/><line class="cls-3" x1="7.33" y1="8.33" x2="-7.33" y2="8.33"/><line class="cls-3" x1="-10.5" y1="16.51" x2="4.16" y2="16.51"/><line class="cls-3" x1="-6.83" y1="65.51" x2="7.83" y2="65.51"/><line class="cls-3" x1="-10.5" y1="70.18" x2="4.17" y2="70.18"/><line class="cls-3" x1="-5.17" y1="68.18" x2="9.5" y2="68.18"/><line class="cls-3" x1="-9.83" y1="63.18" x2="4.83" y2="63.18"/><line class="cls-3" x1="-5.17" y1="54.51" x2="9.5" y2="54.51"/><line class="cls-3" x1="-8.5" y1="58.84" x2="6.17" y2="58.84"/><line class="cls-3" x1="5" y1="23.33" x2="-9.67" y2="23.33"/><line class="cls-3" x1="5.5" y1="26.83" x2="-9.17" y2="26.83"/><line class="cls-3" x1="8.5" y1="28.83" x2="-6.17" y2="28.83"/><line class="cls-3" x1="-5.83" y1="18.67" x2="8.83" y2="18.67"/><line class="cls-3" x1="4.67" y1="32.84" x2="-10" y2="32.84"/><line class="cls-3" x1="8.67" y1="34.84" x2="-6" y2="34.84"/><line class="cls-3" x1="3" y1="37.17" x2="-11.67" y2="37.17"/><line class="cls-3" x1="-8.83" y1="51.51" x2="5.83" y2="51.51"/><line class="cls-3" x1="-6.83" y1="47.17" x2="7.83" y2="47.17"/><line class="cls-3" x1="-6.83" y1="41.84" x2="7.83" y2="41.84"/><line class="cls-3" x1="-4.17" y1="44.51" x2="10.5" y2="44.51"/><line class="cls-3" x1="-2.17" y1="39.51" x2="12.5" y2="39.51"/><line class="cls-3" x1="13" y1="64.84" x2="13" y2="79.5"/><line class="cls-3" x1="10.33" y1="62.5" x2="10.33" y2="77.17"/><line class="cls-3" x1="63.33" y1="68.34" x2="63.33" y2="83"/><line class="cls-3" x1="60.83" y1="67.67" x2="60.83" y2="82.34"/><line class="cls-3" x1="37.5" y1="68.34" x2="37.5" y2="83"/><line class="cls-3" x1="68.67" y1="68.34" x2="68.67" y2="83"/><line class="cls-3" x1="43.17" y1="66.5" x2="43.17" y2="81.17"/><line class="cls-3" x1="16.83" y1="67.67" x2="16.83" y2="82.34"/><line class="cls-3" x1="1.83" y1="67.5" x2="1.83" y2="82.17"/><line class="cls-3" x1="6.83" y1="65.5" x2="6.83" y2="80.17"/><line class="cls-3" x1="34.83" y1="68.34" x2="34.83" y2="83"/><line class="cls-3" x1="58.5" y1="60" x2="58.5" y2="74.67"/><line class="cls-3" x1="33.17" y1="60" x2="33.17" y2="74.67"/><line class="cls-3" x1="3.83" y1="2.83" x2="-10.83" y2="2.83"/><line class="cls-3" x1="2.33" y1="5.33" x2="-12.33" y2="5.33"/><line class="cls-3" x1="7.33" y1="8.33" x2="-7.33" y2="8.33"/><line class="cls-3" x1="-10.5" y1="16.51" x2="4.17" y2="16.51"/><line class="cls-3" x1="-6.83" y1="65.51" x2="7.83" y2="65.51"/><line class="cls-3" x1="-10.5" y1="70.18" x2="4.17" y2="70.18"/><line class="cls-3" x1="-5.17" y1="68.18" x2="9.5" y2="68.18"/><line class="cls-3" x1="-9.83" y1="63.18" x2="4.83" y2="63.18"/><line class="cls-3" x1="-12.83" y1="56.51" x2="1.83" y2="56.51"/><line class="cls-3" x1="-5.17" y1="54.51" x2="9.5" y2="54.51"/><line class="cls-3" x1="-8.5" y1="58.84" x2="6.17" y2="58.84"/><line class="cls-3" x1="5" y1="23.33" x2="-9.67" y2="23.33"/><line class="cls-3" x1="5.5" y1="26.83" x2="-9.17" y2="26.83"/><line class="cls-3" x1="8.5" y1="28.83" x2="-6.17" y2="28.83"/><line class="cls-3" x1="-5.83" y1="18.67" x2="8.83" y2="18.67"/><line class="cls-3" x1="4.67" y1="32.84" x2="-10" y2="32.84"/><line class="cls-3" x1="8.67" y1="34.84" x2="-6" y2="34.84"/><line class="cls-3" x1="3" y1="37.17" x2="-11.67" y2="37.17"/><line class="cls-3" x1="-12.17" y1="48.51" x2="2.5" y2="48.51"/><line class="cls-3" x1="-8.83" y1="51.51" x2="5.83" y2="51.51"/><line class="cls-3" x1="-6.83" y1="47.17" x2="7.83" y2="47.17"/><line class="cls-3" x1="-6.83" y1="41.84" x2="7.83" y2="41.84"/><line class="cls-3" x1="-4.17" y1="44.51" x2="10.5" y2="44.51"/><line class="cls-3" x1="-2.17" y1="39.51" x2="12.5" y2="39.51"/><line class="cls-3" x1="-3.5" y1="7" x2="11.17" y2="7"/><line class="cls-3" x1="-5.17" y1="13.67" x2="9.5" y2="13.67"/><line class="cls-3" x1="58.5" y1="-12" x2="58.5" y2="2.67"/><line class="cls-3" x1="60" y1="-13.5" x2="60" y2="1.17"/><line class="cls-3" x1="65.33" y1="-8" x2="65.33" y2="6.67"/><line class="cls-3" x1="69.67" y1="-10.67" x2="69.67" y2="4"/><line class="cls-3" x1="19.33" y1="-13.17" x2="19.33" y2="1.5"/><line class="cls-3" x1="25.83" y1="-12.33" x2="25.83" y2="2.33"/><line class="cls-3" x1="33.17" y1="-12" x2="33.17" y2="2.67"/><line class="cls-3" x1="31" y1="-13.17" x2="31" y2="1.5"/><line class="cls-3" x1="37.17" y1="-14.33" x2="37.17" y2="0.33"/><line class="cls-3" x1="55" y1="-14.33" x2="55" y2="0.33"/><line class="cls-3" x1="48" y1="-6.33" x2="48" y2="8.33"/><line class="cls-3" x1="39" y1="-8.33" x2="39" y2="6.33"/><line class="cls-3" x1="13" y1="-7.17" x2="13" y2="7.5"/><line class="cls-3" x1="10.33" y1="-9.5" x2="10.33" y2="5.17"/><line class="cls-3" x1="63.33" y1="-3.67" x2="63.33" y2="11"/><line class="cls-3" x1="60.83" y1="-4.33" x2="60.83" y2="10.33"/><line class="cls-3" x1="37.5" y1="-3.67" x2="37.5" y2="11"/><line class="cls-3" x1="68.67" y1="-3.67" x2="68.67" y2="11"/><line class="cls-3" x1="43.17" y1="-5.5" x2="43.17" y2="9.17"/><line class="cls-3" x1="16.83" y1="-4.33" x2="16.83" y2="10.33"/><line class="cls-3" x1="1.83" y1="-4.5" x2="1.83" y2="10.17"/><line class="cls-3" x1="6.83" y1="-6.5" x2="6.83" y2="8.17"/><line class="cls-3" x1="34.83" y1="-3.67" x2="34.83" y2="11"/><line class="cls-3" x1="58.5" y1="-12" x2="58.5" y2="2.67"/><line class="cls-3" x1="33.17" y1="-12" x2="33.17" y2="2.67"/></pattern><clipPath id="clip-path-2"><ellipse class="cls-4" cx="48.01" cy="48.05" rx="47.49" ry="47.47"/></clipPath></defs><title>sharpen_v2</title><ellipse class="cls-5" cx="47.99" cy="47.99" rx="47.49" ry="47.47"/><ellipse class="cls-5" cx="48.01" cy="48.05" rx="47.49" ry="47.47"/><g class="cls-6"><rect class="cls-7" x="-7.87" y="-5.24" width="103.87" height="108.06"/></g><ellipse class="cls-8" cx="47.99" cy="47.99" rx="47.49" ry="47.47"/><ellipse class="cls-8" cx="48.01" cy="48.05" rx="47.49" ry="47.47"/></svg>